<?xml version="1.0" encoding="UTF-8"?>
<svg xmlns="http://www.w3.org/2000/svg" viewBox="0 0 2937.02 2000">
  <defs>
    <style>
      .cls-1 {
        fill: #fff;
      }
    </style>
  </defs>
  <g id="background">
    <rect class="cls-1" width="2057.4" height="2000"/>
  </g>
  <g id="Layer_1" data-name="Layer 1">
    <path d="M765.27,756.21c7.4-9.94,31.61-8.64,40.64,2.7,3.63,4.56.44,5.26,6.26,25.83,1.78,6.31,3.5,11.24,1.96,17.61-.35,1.43-1.46,5.84-4.7,9.39-7.39,8.11-23.44,9.12-32.87,2.35-6.75-4.84-8.28-14.97-11.35-35.22-1.89-12.51-2.78-18.84.06-22.65Z"/>
    <path d="M840.34,760.86c-1.72,10.15-.79,18.27-.58,19.98,1.07,8.76,1.9,15.57,6.06,23.46,3.62,6.86,7.57,14.33,16.04,16.83,7.13,2.1,15.83.19,21.13-5.09,5.43-5.4,5.13-14.5,4.3-32.48-.87-18.83-1.42-28.31-7.62-31.66-3.59-1.94-4.53.62-16.64.36-11.34-.24-16.39-2.61-19.96.78-.78.74-1.75,2-2.74,7.83Z"/>
    <path d="M748.52,748.73c3.08,6.34-5.17,11.5-13.62,30.76-5.49,12.51-5.44,18.16-11.55,21.28-6.22,3.17-13.16.83-15.26,0-9.85-3.9-12.66-13.92-12.91-14.87-1.17-4.46.65-10.41,4.3-22.3,2.16-7.02,4.31-11.2,8.61-19.57,1.81-3.51,3.16-5.85,5.87-7.04,1.02-.45,2.92-1.05,11.81.81,5.23,1.09,7.85,1.64,10.49,2.71,4.9,1.99,10.31,4.19,12.26,8.22Z"/>
    <path d="M798.33,420.67c1.03-.54,9.99-5.1,15.65-1.17,3.46,2.4,3.27,6.28,4.48,21.24,1.73,21.34,3.12,25.57-.39,28.76-1.61,1.46-6.42,2.02-16.04,3.13-9.12,1.05-11.22.54-12.72-.78-1.58-1.39-1.39-2.71-2.74-10.57-2.43-14.2-2.08-12.54-1.96-15.46.05-1.28,1.02-18.49,13.71-25.16Z"/>
    <path d="M866.79,474.79c7.52,3.26,22.74,6.47,30.08-1.22,2.83-2.96,3.26-9.28,4.11-21.91.29-4.3.24-5.63.2-24.07-.04-15.33-.02-17.73-2.1-20.89-3.73-5.64-10.05-7.44-15.7-9.05-5.18-1.47-16.8-4.79-23.28.98-1.25,1.11-3.18,3.34-4.45,18.05-1.44,16.71,1.09,15.89.39,35.22-.26,7.06-.71,12.81,3.13,17.61.51.63,2.52,3.07,7.63,5.28Z"/>
    <path d="M944.07,444.65c5.56-16.73,6.84-24.36,14.67-28.76,4.57-2.57,10.97-3.8,17.02-2.54,3.52.73,7.04,3.03,14.09,7.63,4.52,2.95,5.89,4.33,6.65,6.26,1.25,3.15.26,6.18-.98,9.78-4.48,13.05-6.72,19.57-7.43,21.52-2.72,7.38-1.71,6.01-5.28,16.24-4.07,11.66-6.17,17.56-9.05,20.69-1.08,1.18-9.04,9.55-20.69,8.85-9.37-.56-18.32-6.83-21.77-14.92-3.78-8.88,2.13-12.76,12.77-44.76Z"/>
    <path d="M1952.45,662.03c-2.94-35.12-19.06-59.52-27.78-72.39-8.82-13.02-37.72-54.09-90.78-66.52-9.91-2.32-32.67-7.51-60.2-.33-23.83,6.22-39.85,18.71-45.77,23.7-26.89,22.7-21.55,39.45-46.96,58.17-17.92,13.21-36.29,16.46-46.26,18.23-6.22,1.1-37.54,6.41-72.78-8.61-25.79-10.99-41.24-27.05-55.57-42.26-13.09-13.89-23.47-28.12-43.83-63.39-25.9-44.87-25.29-51.93-52.04-97.83-23.2-39.81-37.12-57.18-41.38-62.4-15.84-19.44-30.1-32.96-44.33-46.45-17.5-16.59-36.51-32.72-57.16-48.76-29.9-23.23-69.62-53.68-128.4-79.67-30.09-13.3-59.33-26.36-101.25-32.72-65.12-9.88-117.03,2.9-147.67,10.76-11.18,2.87-50.79,13.51-99.6,39.17-80.19,42.16-128.98,95.3-160.46,130.21-62.45,69.24-96.97,135.84-113.55,171.97,0,0-33.34,72.82-49.04,151.83-6.83,34.36-9.2,60.28-11.15,82.24-4.45,49.88-12.47,165.08,20.74,239.87,9.12,20.54,19.82,34.47,23.56,39.16,8,10.04,21.09,26.14,43.43,38.35,22.78,12.44,44.49,15,52.04,15.65,12.58,1.09,26.92.42,56.74,3.13,10.8.98,13.95,1.53,17.36,4.06,9.06,6.71,7.87,18.43,10.73,54.61,1.47,18.64,2.84,30.35,6.49,44.52,4.77,18.52,9.06,24.28,13.39,28.13,10.36,9.19,23.94,10.06,27.86,10.31,7.63.49,13.92-.79,18-1.96-6.52,9.39-13.04,18.78-19.57,28.17-13.62-7.9-24-15.41-30.91-20.74-29.96-23.13-35.54-37.16-75.67-76.07-5.12-4.97-13.7-13.14-25.58-25.46-12.01-12.46-12.08-13.27-20.1-21.37-30.5-30.78-42.29-32.19-46.13-32.45-8.86-.59-16.44,2.27-18.41,3.06-10.24,4.11-16.18,11.21-18,13.3-10.55,12.14-47.99,46.28-102.13,94.3-30.98-38.21-55.87-65.94-72.38-83.67-6.27-6.74-14.8-15.71-28.57-23.87-24.7-14.63-48.02-15.94-59.09-16.43-14.4-.64-31.6-1.4-50.87,7.83-19.24,9.22-29.74,23.27-34.83,30.13-6.82,9.2-19.37,26.11-18.78,46.96.3,10.73,4.03,20.51,30.91,54,24.25,30.22,37.1,44.75,53.22,60.26,22.12,21.29,53.88,49.02,96.2,77.67-7,7.94-15.54,18.89-23.58,32.98-3.1,5.43-10.35,18.73-16.83,38.35-7.29,22.11-18.28,55.41-11.22,96.39,2.67,15.5,6.29,36.57,22.66,57.28,20.9,26.44,48.95,35.28,61.34,38.19,36.53,8.6,72.93-2.27,96.36-20.98,13.84-11.05,24.16-25.63,28.17-31.3,9.13-12.91,15.04-24.86,18.78-33.65,28.47,29.94,68.31,69.61,118.71,113.18,24.16,20.88,88.18,76.16,153.88,118.01,52.31,33.32,193.03,122.95,387.23,125.06,46.44.5,162.79.39,290.9-64.8,23.51-11.96,192.33-100.96,277.83-295.83,33.75-76.92,40.54-138.44,42.29-158.29,5.18-58.75,15.45-176.53-59.86-252.51-42.38-42.76-98.3-60.07-113.01-64.46-19.74-5.89-38.12-8.1-74.87-12.52-13.51-1.62-57.2-6.62-141.13-8.35-29.6-.61-69.14-.91-116.12.22-6.33-26.45-12.56-53.18-18.7-80.19-7.94-34.94-15.54-69.54-22.81-103.78,13.27,4.81,32.51,10.27,56.15,11.93,8.6.6,50.44,3,99.26-17.38,50.98-21.28,80.29-55.17,90.07-67.34,23.23-28.92,34.4-57.51,39.91-75.52,10.53,26.03,42.07,93.72,116.9,139.75,21.76,13.39,88.37,54.36,174.91,40.3,18.39-2.99,89.06-14.47,134.61-75.52,9.52-12.77,38.91-52.15,34.43-105.65ZM1302.96,349.57c3.33,1.12,7.96,2.94,12.26,7.04,8.85,8.45,10.9,21.29,10.17,28.17-2.06,19.46-30.45,30.83-57.49,41.29-14.63,5.66-51.7,18.7-108.91,20.09-30.09.73-64.53,1.56-69.68-12.59-2.69-7.37,4.07-15.44,14.09-28.96,23.73-32.02,53.89-46.25,62.61-50.09,24.11-10.63,43.83-12.23,64.98-13.96,0,0,36.33-3.04,71.98,9ZM1257.7,304.57c-.81,4.74-16.89,3.89-43.73,7.57-21.31,2.92-41.51,5.68-63.23,15.39-21.62,9.66-35.92,22.18-44.87,30.26-8.74,7.89-23.08,22.21-36.52,43.41-14.46,22.82-21.46,43.48-29.45,67.1-6.74,19.92-10.36,35.19-22.46,57.76-4.29,7.99-8.27,14.31-10.96,18.39-31.56-22.02-60.55-35.39-81.65-43.54-34.11-13.18-62.79-24.27-100.7-23.11-40.96,1.25-58.64,14.36-65.22,5.74-14.58-19.11,62.19-99.32,67.04-104.35,9.4-9.73,33.3-33.64,69.13-58.96,25.7-18.15,49.99-35.4,87.13-48.52,9.28-3.28,43.58-14.91,90.26-16.7,36.04-1.38,62.98,3.75,81.75,7.44,32.75,6.44,50.49,14.23,83.12,28.56,11.01,4.84,21.01,9.69,20.35,13.57ZM931.29,1041.65c5.18-5.81,21.73-6.34,54.78-8.22,20.96-1.19,12.9-2.36,52.83-6.26,44.73-4.37,67.14-5.98,76.35,6.02,4.85,6.32,5.59,15.24,6.02,20.5.19,2.31.57,8.83-3.33,23.57-4.93,18.66-7.45,28.15-16.16,36.08-2.84,2.59-11.79,10.74-21.4,8.52-6.51-1.5-10.52-7.1-13.19-10.83-3.58-5-5.43-10.01-7.49-18.48-5.84-23.94-2.81-32.2-10.62-40.34-1.39-1.45-4.84-4.68-10.17-6.26-.58-.17-11.09-3.12-18.78,2.74-4.45,3.39-5.93,8.18-7.43,13.7-5.91,21.62-5.36,29.23-9.78,43.04-5.77,18.02-12.22,22.33-14.09,23.48-6.29,3.86-12.77,3.81-15.66,3.78-.96,0-16.67-.39-26.6-12.78-4.46-5.57-5.89-11.27-6.65-14.48-9.2-38.64-13.79-57.97-8.61-63.78ZM1006.57,984.66c-42.29.99-80.08-1.91-112.17-6.26l167.48-441.91c14.78,146.26,29.57,292.52,44.35,438.78-28.96,4.81-62.43,8.52-99.65,9.39ZM690.05,612.92c3.88-3.46,8.3-5.43,16.99-9.22,5.45-2.38,9.44-3.87,10.93-4.34,5.86-1.86,11.93-4.2,19.57-3.91,3.14.12,5.15.56,7.04,2.09,4.09,3.29,3.23,9.16,3.78,16.57,0,0,.94,12.59,7.04,25.43.98,2.06,5.32,10.8,14.48,19.17,1.51,1.38,8.49,7.63,20.01,12.58,13.2,5.66,24.47,6.22,33.99,6.6,11.57.46,26.5,1.1,43.83-5.87,8.41-3.39,20.7-8.33,29.7-20.82,5.71-7.92,7.75-15.63,9.74-23.14,3.38-12.76,3.6-23.79,3.21-31.17,22.96,13.71,39.62,22.81,52.57,29.35,2.38,1.2,7.2,3.61,10.43,8.87,7.14,11.61-1.94,30.22-10.05,40.36-14.22,17.77-36.7,21.15-81.66,27.91-26.13,3.93-47.17,4.65-61.22,4.64-21.21,0-36.77-1.64-49.89-3.13-36.55-4.14-57.57-10.16-76.04-20.48-13.54-7.56-16.33-15.12-17.74-18.52-6.65-16.08,1.84-33.86,5.48-41.48,3.46-7.25,6.52-10.32,7.83-11.48ZM709.16,538.72c8.57-6.21,16.47-8.89,27.52-12.54,4.09-1.35,12.99-4.13,27.59-6.85,28.44-5.29,51.13-5.14,56.93-5.09,23.82.23,41.85,3.34,47.45,4.36,26.18,4.78,44.53,12.19,62.37,19.51,24.25,9.95,45.25,21.21,57.91,37.18,3.59,4.53,7.95,11.24,7.08,19.21-.65,5.91-4.23,13-8.87,13.57-4.1.5-6.38-4.59-13.34-10.86-4.52-4.08-9.92-6.84-20.74-12.33-8.19-4.16-15.94-7.56-36.52-15.46-16.85-6.47-25.28-9.7-29.35-10.96-18.48-5.7-33.24-7.58-46.96-9.39-8.56-1.13-19.07-2.48-33.26-2.74-3.7-.07-13.15-.16-25.43.78-25.07,1.92-37.61,2.88-50.84,8.63-15.46,6.71-24.95,16.25-36.1,12.7-2.98-.95-4.02-2.18-4.5-3.13-3.18-6.32,9.02-19.32,19.05-26.59ZM714.52,723.54c52.89,20.74,100.64,21.17,120.93,21.35,7.91.07,40.23.06,81.37-8.43,12.36-2.55,22.65-5.28,30.13-7.43-13.04,27.27-22.36,50.05-28.35,65.49,0,0-44.04,113.41-78,180.72-1.43,2.84-4.97,9.53-12.13,15.26,0,0-10.58,8.4-25.04,9.39-6.76.46-24.94-1.25-66.42-63.91-8.96-13.53-31.09-48.16-52.4-99.2-5.32-12.75-13.96-33.9-19.96-62.22-6.61-31.22-12.08-56.62-.93-64.72,9.37-6.81,22.77,2.71,50.8,13.7ZM640.96,1028.17c-31.29-2.55-59.91-3.51-78.26-13.7-57.24-31.77-63.12-121.59-67.76-192.59-5.71-87.31,8.01-159.43,20.35-205.96,10.51-39.64,39.01-132.3,111.52-229.96,31.67-42.66,68.48-92.23,135.46-135.59,36.55-23.67,109.91-69.79,213.65-69.65,89.47.12,156.61,34.58,189.13,54.45-38.82-8.8-101.93-17.55-175.83-1.3,0,0-28.15,6.19-61.04,18.78-19.96,7.64-36.16,14.7-52.07,23.39-68.66,37.48-127.87,95.53-129.39,97.32-.15.18-1.63,2.02-4.04,3.4h0c-40.01,40.54-165.73,167.89-161.04,348.19,2.55,97.92,42.64,176.37,55.91,201.72,23.74,45.33,50.52,79.2,71.14,102.04-16.09,1.05-39.55,1.74-67.72-.55ZM735.05,1173.52c-2.81-1.66-8.95-6.19-15.91-47.22-3.85-22.72-3.53-29.94-3.21-33.81,1.18-14.19,1.92-23.14,8.16-29.58,9.11-9.41,20.95-4.2,60.91-6.52,4.71-.27,15.44-1.4,36.92-3.65,36.5-3.83,54.76-5.72,55.83-6,10.81-2.81,16.98-5.53,21.13-2.09,4.12,3.43,3.05,10.3-.52,34.96-4.49,31.01-4.3,30.52-4.96,33.13-4.28,16.91-8.61,33.17-21.91,41.74-2.59,1.67-9.55,6.15-16.96,4.17-1.63-.43-4.2-1.43-8.61-5.74-8.8-8.6-12.68-18.45-14.09-22.43-3.38-9.57-4.15-18.29-4.7-24.52-.97-11.07.23-13.96-2.61-19.04-3.38-6.05-9-8.97-14.35-11.74-6.82-3.54-13.02-6.7-18.26-4.7-5.6,2.15-7.55,10.85-11.22,28.17-3.36,15.86-6.46,30.65-9.39,42.26-7,27.71-11.69,31.92-15.65,33.91-6.35,3.2-14.7,2.18-20.61-1.3ZM1508.56,1041.36s.02-.05.02-.05c0-.02.01-.03.02-.04,0,0,0,0,0,0,.02-.04.03-.07.03-.07.02-.03,22.86-8.25,60.83,4.79,25.18,8.65,41.85,21.44,45.92,24.65,4.97,3.91,25.95,21.03,42.14,51.86,13.65,26.01,16.75,48.68,19.57,70.76,1.92,15.07,5.36,50.34-2.35,100.96-9.24,60.7-28.57,104.52-40.7,131.48-13.2,29.35-33.69,74.07-74.61,123.21-16.42,19.71-58.43,66.94-126.83,107.32-49.62,29.3-93,43.11-113.17,48.86-.72.21-1.6.45-2.6.73-52.05,14.56-90.09,22.83-92.96,23.45-33.16,7.14-113.17,12.35-204.18-1.48-39.95-6.07-132.39-23.5-235.32-77.14-4.47-2.33-110.24-58.04-176.01-121.79-15.79-15.31-33.32-28.72-49.51-43.6-36.24-33.29-49.76-49.12-71.09-48.26-18.5.74-32.24,13.01-33.9,14.53-14.4,13.21-10.97,24.35-26.61,52.89-6.9,12.6-13.7,24.09-27.39,32.87-18.15,11.64-36.76,10.76-40.7,10.5-21.69-1.43-36.15-13.37-40.7-17.22-35.19-29.79-34.5-90.02-22.97-127.09,7.9-25.39,22.78-46.03,30.8-57.15,9.63-13.35,17.8-21.35,23.48-26.35,7.1-6.25,13.39-10.57,17.22-13.04,15.92-10.28,29.72-14.74,32.61-15.65,13.58-4.28,24.34-5.08,33.91-5.74,5.45-.37,20.94-1.19,40.96,1.83,6.58.99,22.89,3.8,43.57,11.74,41.63,16,77.16,43.7,103.83,67.04,30.16,26.4,34.99,34.95,64.32,63.54,76.88,74.94,146.95,116.82,164.2,126.89,25.97,15.16,54.89,32.05,96.78,47.22,33.56,12.15,113.65,40.11,216.78,27.13,17.51-2.2,85.27-11.83,161.74-54,99.86-55.07,151.45-130.84,184.48-179.36,39.8-58.45,59.15-107.07,69.78-145.7,20.02-72.74,13.11-104.35,6.91-120.39-5.97-15.45-14.29-36.98-34.84-54.31-5.15-4.34-43.49-35.75-43.47-35.81ZM506.82,1259.19c1.96-2.33,6.5-7.74,13.04-8.09,1.49-.08,4.48.03,13.3,6.26,11.31,7.98,17.78,12.54,17.48,19.04-.16,3.41-2.25,7.51-5.74,9.13-5.55,2.57-9.79-3.43-24.15-8.62-11.37-4.11-17.42-3.49-18.64-7.55-1.01-3.37,2.15-7.15,4.7-10.17ZM725.43,1396.54c1.58-3.87,2.76-6.79,5.87-9,4.74-3.37,10.35-2.55,11.74-2.35,6.81.99,12,5.76,17.61,13.3,8.84,11.89,13.32,23.39,18,37.57,7.77,23.51,11.65,35.26,8.61,37.57-4.85,3.67-14.53-10.75-46.17-30.13-4.61-2.82-13.58-8.13-16.83-18-1.39-4.23-1.49-8.56-1.57-11.74-.08-3.69-.17-10.07,2.74-17.22ZM827.56,1487.97c.04-6.75,2.11-11.46,6.26-20.87,3.48-7.89,6.82-12.82,11.74-20.09,8.47-12.51,11.5-13.83,13.57-14.35,4.6-1.15,8.6.63,13.04,2.61,1.96.87,10.58,4.9,18.44,15.88,5.25,7.33,7.36,13.84,9.65,21.11,2.86,9.08,3.8,18.46,5.56,36.84,1.85,19.27,1.57,25.48-2.87,30-2.91,2.96-6.33,3.92-7.3,4.17-9.14,2.43-15.32-4.67-34.43-16.17-17.61-10.59-21.58-10.11-26.87-17.74-1.74-2.52-6.85-10.55-6.78-21.39ZM946.7,1517.53c6.43-11.61,12.34-21.96,20.69-22.03,4.45-.04,8.65,2.69,11.48,4.96,4.7,3.76,7.39,7.47,10.43,11.74,7.09,9.94,10.64,14.9,11.74,16.7,13.8,22.54,22.93,37.4,17.74,51.13-.86,2.28-2.57,6.8-6.91,9.2-7.87,4.36-17.23-2.22-36.78-12-30.8-15.4-36.76-13.67-39.95-21.73-3.73-9.4,1.2-19.26,11.57-37.97ZM1182.99,1514.02c1.73-5.87,4.39-13.98,10.95-21.96,3.62-4.4,8.05-9.64,13.7-9.34,5.81.31,9.72,6.29,12.52,10.57,4.02,6.14,5.57,11.62,8.14,23.07,5.1,22.78,4.43,25.5,8.3,30.15,5.14,6.17,14.45,11.12,21.52,8.61,4.16-1.48,6.19-5.09,11.74-19.33,2.92-7.51,11.41-29.76,19.18-46.8,4.41-9.66,8.22-12.31,11.35-14.48.62-.43,12.84-8.63,26.22-4.7,3.11.91,6.72,1.96,26.92,26.59,8.63,10.52,8.97,10.69,9.08,12.15.96,12.83-23.32,27.01-48.91,41.09,0,0,0,0,0,0-26.23,14.27-49.21,23.69-66.07,29.8-34.48,12.51-80.66,15.88-173.02,22.63-5.76.42-15.48,1-21.99-5.1-6.33-5.93-4.96-13.81,1.57-63,2.84-21.41,4.41-33.72,14.61-42.37,2.42-2.05,7.18-5.98,13.64-6.13,10.61-.25,18.71,9.84,27.39,20.74,6.76,8.48,10.6,16.01,12.13,19.17,4.74,9.82,7.24,19.15,9,25.83,2.91,11.06,2.42,13.25,5.48,19.57,2.85,5.89,6.62,13.68,13.7,14.87,6.39,1.08,11.89-3.82,13.3-5.09,5.73-5.1,6.99-12.1,7.83-16.43,0,0,5.78-29.88,11.74-50.09ZM1387.96,1442.79c1.75-4.9,16.32-44.77,33.86-53.59,1.85-.93,4.96-2.14,9-1.96,11.61.54,15.07,12.8,21.88,12.37,5.7-.36,5.74-9.1,19.99-35.85.37-.7,8.5-15.9,18.34-30.89.08-.12.12-.19.18-.28,7.69-11.62,18.55-21.51,22.95-19.31,1.82.91,2.14,3.7,2.26,4.84,2.99,29.05-38.26,78.58-38.26,78.58-15.73,18.89-36.65,42.47-63,68.41,0,0-13.82,18.81-30.91,29.35-3.92,2.42-6.29,2.85-7.83,1.96-6.35-3.69,2.92-29.59,11.53-53.62ZM1498.19,1094.22c2.14-3.59,7.41-3.42,8.09-3.39,2.58.12,5.08,1.18,10.57,6,4.02,3.54,6.56,6.38,10.17,10.43,9.66,10.84,10.35,11.57,11.73,13.65,4.27,6.43,6.66,10.04,5.81,14.57-.98,5.21-6,10.39-11.25,10.27-4.8-.11-8.05-4.55-10.07-7.32-4.7-6.44-2.5-9.57-7.17-18-2.07-3.73-4.28-7.71-8.74-11.22-4.17-3.28-7.46-3.91-9.13-7.83-.24-.57-1.78-4.19,0-7.17ZM1390.81,1065.72c.54-15.12,3.34-18.7,5.87-20.35,1.79-1.17,4.65-2.16,21.91,2.35,16.78,4.38,26.66,8.61,29.35,9.78,11.74,5.11,17.66,7.76,20.35,12.52,4.09,7.24,2.14,15.44.78,21.13-1.68,7.05-3.92,9.44-15.26,27-11.11,17.21-12.45,20.32-18,23.48-1.87,1.06-11.75,6.68-20.74,3.13-2.68-1.06-7.78-3.91-15.65-27.39-7.71-22.97-9.07-38.84-8.61-51.65ZM1280.46,1030.89c1.86-1.23,3.68-2.19,9.78-.78,7.25,1.67,14.62,1.9,29.35,2.35,13.94.43,15.88-2.51,25.43,0,4.56,1.2,11.13,2.92,14.09,8.22,3.19,5.7.42,12.35-2.74,20.74-3.42,9.08-5.37,15.95-7,20.34-7.07,19.06-5.56,17.98-9.44,27.01-6.73,15.67-10.06,23.59-18,26.61-7.78,2.96-16.78.58-22.7-3.52-5.62-3.9-8.84-9.64-13.3-26.61-2.76-10.49-5.94-25.08-7.83-43.04h0c-4.13-10.84-4.63-26.7,2.35-31.3ZM1246.91,1290.46c5.72,1.37,13.65,3.02,23.48,1.17,10.07-1.9,16.85-6.86,45.78-37.96,19.97-21.45,29.98-32.16,34.18-37.73,3.22-4.28,12.49-16.86,27.26-30.35,8.96-8.19,12.92-10.29,17.22-11.35,11.78-2.9,16.19,4.5,30.13,4.3,16.69-.24,29.29-11.13,31.3-12.91,15.22-13.53,20.35-25.04,20.35-25.04,1.16-2.6,3-7.3,5.87-7.43,2.72-.13,4.79,3.9,7.04,7.83,6.13,10.68,10.98,19.13,18,24.26,2.28,1.66,11.98,8.74,21.52,6.65,2.47-.54,6.4-2.02,11.35-.78,0,0,3.15.79,5.87,2.74,10.81,7.76,4.57,43.73,3.13,52.04-3.24,18.72-6.28,22.82-9,25.43-9.11,8.75-22.13,7.93-23.48,7.83-8.69-.67-11.57-4.72-33.65-18-14.62-8.79-19.22-10.76-22.48-10.99,0,0-.89-.02-1.78.03-27.31,1.43-83.74,77.87-83.74,77.87-38.75,52.49-63.86,85.59-97.43,86.87-12.5.47-22.03-2.95-39.91-11.74-32.97-16.21-58.04-39.66-71.22-53.22-24.36-25.05-31.35-37.91-43.43-36.39-4.73.6-8.01,3.16-25.7,28.98-38.76,56.59-48.05,67.18-57.68,73.56-9.78,6.48-23.74,15.72-41.06,14.07-23.48-2.24-39.08-23.71-61.43-51.26-6.03-7.43-34.23-42.81-55.57-56.74-4.34-2.83-7.5-2.97-10.57-3.13-4.74-.24-20.16.48-52.04,46.96-17.1,24.92-21.69,37.56-29.74,37.17-8.9-.43-7.81-17.91-23.87-26.61-11.36-6.15-24.52-4.24-37.57-2.35-19.06,2.77-19.01,6.66-28.17,6.65-20.37-.01-28.16-20.9-71.92-65.07-9.59-9.68-13.22-12.68-19.36-18.63,0,0-4.57-4.41-10.46-10.6-14.85-15.59-33.8-41.84-36.15-45.11-5.83-8.11-8.63-12.38-14.72-15.54-10.36-5.37-21.23-3.71-21.23-3.71-.47.07-.84.14-1.08.18-3.08.56-9.19,2.12-21.52,12.13-12.31,10-12.68,13.69-25.83,25.83-9.99,9.22-16.09,14.55-25.83,17.61-7.9,2.49-12.22,1.55-21.91,1.96-19.17.81-33.7,5.85-41.87,8.61-26.43,8.94-28.93,18.84-44.56,18.54-3.92-.07-10.88-.83-28.22-11.5-28.24-17.36-46.85-38.14-71.32-65.84-3.05-3.45-9.65-11.22-22.85-26.76-8.09-9.52-12.69-14.99-18.52-22.84-11.29-15.18-14.18-21.8-15.65-25.43-2.91-7.17-5.5-13.78-4.3-22.3,1.35-9.58,6.71-16.18,9.78-19.96,2.98-3.67,6.73-8.28,13.3-11.35,9.01-4.2,17.62-2.84,22.7-1.96,9.35,1.63,16.41,5.51,26.61,12.52,16.22,11.15,27.21,19.2,41.48,34.83,11.54,12.64,8.44,12.07,29.74,38.35,12.91,15.92,19.05,24.14,29.74,31.7,9.05,6.39,21.01,14.84,36.39,14.09,2.76-.14,11.91-.88,31.7-14.87,6.44-4.55,13.91-10.1,43.43-40.7,10.9-11.29,23.22-21.12,34.43-32.09,9.47-9.26,14.87-11.72,18.68-12.34,0,0,0,0,0,0,0,0,1.79-.22,3.62-.19,24.28.51,66.13,52.83,66.13,52.83,48.17,60.22,85.92,86.64,99.39,110.74,1.27,2.27,6.95,12.95,18.39,23.48,4.68,4.3,7.01,6.47,9.39,7.43,9.86,3.99,22.19-2.66,60.65-32.87,20.31-15.95,30.77-23.55,36.78-28.96,2.33-2.09,15.54-14.03,34.04-27,7.29-5.11,14.27-9.59,23.48-9.39,5.89.13,10.96,2.04,17.22,5.87,13.07,8,21.46,17.03,34.43,32.09,5.67,6.59,18.31,21.39,28.42,33.11,15.55,18,17.29,19.61,20.88,20.5,3.07.76,12.25,2.19,48.91-29.35,14.98-12.88,23.6-20.3,34.43-32.48,10.74-12.07,23.53-22.43,32.87-35.61,2.65-3.73,6.67-9.74,13.7-11.35,8.18-1.87,15.83,3.28,19.57,5.87,33.71,23.37,50.41,35.28,52.83,37.57,40.96,38.68,48.43,52.09,71.22,57.52ZM1234.68,1032.46c3.46,3.85,4.34,8.29,4.7,10.17,1.59,8.5-2.3,14.87-10.17,28.57-15.37,26.75-15.79,29.01-21.52,34.04-4.83,4.24-15.06,13.22-23.48,10.17-3.09-1.12-5.56-3.72-10.57-16.83-6.12-16.02-11.73-31.17-10.57-52.04.54-9.76.89-14.72,4.7-18.39,4.48-4.32,9.47-2.96,32.09-1.96,22.39,1,29.38.19,34.83,6.26ZM1437.31,654.13c-4.86,18.25-17.09,50.81-48.13,77.48-30.49,26.19-62.63,32.37-80.61,35.61-46.35,8.34-82.55-3.17-92.61-6.65-19.3-6.68-43.77-15.15-63.39-39.39-28.35-35.02-25.09-76.43-24.39-83.74,4.39-45.8,35.87-83.48,73.96-100.7,40.08-18.12,98.89-18.72,131.87,17.22,2.59,2.82,32.61,36.47,21.13,75.91-9.03,31.05-36.71,44.5-45.78,48.91-10.71,5.21-40.02,19.45-66.91,4.7-1.4-.77-25.72-14.64-28.96-42.26-1.71-14.63,2.1-36.33,17.32-45.25,6.31-3.7,12.79-4.15,17.11-4.44,2.11-.14,21.91-1.52,26.61,8.22,1.33,2.75,1.77,7.04-.39,9.39-2.3,2.5-6.64,1.82-8.22,1.57-5.27-.84-6.55-3.86-10.57-5.48-6.2-2.49-15.28-.23-18.39,4.3-5.28,7.69,3.88,25.98,17.61,34.04,14.1,8.29,33.41,6.01,45.78-4.7,2.07-1.79,9.96-8.82,12.13-20.35,4.7-24.94-21.85-45.3-25.04-47.74-25.34-19.4-55.17-13.06-58.54-12.28-21.88,5.03-34.57,19.13-38.51,23.63-16.17,18.49-18.21,39.04-18.78,45.78-.34,3.96-1.94,28.8,13.3,52.83,24.13,38.02,71.63,41.89,84.44,42.93,41.29,3.36,71.4-14.79,80.69-20.62,8.76-5.5,22.41-14.27,33.65-31.3,4.72-7.16,11.12-18.95,14.09-34.43,4.96-25.83-2.56-46.63-6.65-57.52-17.82-47.43-59.52-69.34-71.22-75.52-21.39-11.3-40.73-15.25-51.24-16.81-25.2-3.74-44.75-.44-55.97,1.55-10.18,1.81-27.46,4.99-47.74,15.26-16.13,8.17-28.04,17.67-36,25.04-8.57,10.47-17.13,20.94-25.7,31.41-2.91-23.42-5.99-42.15-8.35-55.3-2.59-14.43-4.87-25.33,1.2-31.62,6.15-6.37,17.51-4.54,22.05-3.89,39.42,5.64,97.68-1.82,128.37-10.14,43-11.65,75.63-24.81,75.63-24.81,9.89-3.99,18.78-7.91,29.17-5.04,8.03,2.22,15.43,8.21,34.58,39.9,10.73,17.75,17.88,31.98,21.65,39.55,17.53,35.16,26.47,52.69,28.17,58.7,3.4,11.99,12.42,45.31,1.57,86.09ZM1873.61,674.09c-2.55,9.81-9.06,33.71-29.74,56.35-20.25,22.16-42.82,30.8-54.78,35.22-26.04,9.62-47.85,9.54-59.87,9.39-38-.48-66.92-12.71-81.36-20.02-25.33-12.81-40.76-27.99-55.2-42.2-12.63-12.43-19.45-23.26-21.91-27-7.59-11.51-12.67-22.16-16.06-30.45,19.24,3.1,59.99,8.45,98.94,3.23,14.82-1.98,25.55-4.99,36.07-10.35,15.45-7.86,25.75-18.41,30.52-23.38,3.84-3.99,7.76-9.09,15.58-19.27,13.94-18.13,14.84-21.35,22.37-29.35,7.75-8.23,13.12-13.9,21.91-18.78,5.65-3.14,26.34-13.47,50.09-5.87,15.32,4.9,24.3,14.84,27.78,18.78,12.73,14.44,15.45,30.21,18,45,4.83,28.01-.22,50.5-2.35,58.7Z"/>
  </g>
</svg>