<?xml version="1.0" standalone="no"?>
<!DOCTYPE svg PUBLIC "-//W3C//DTD SVG 20010904//EN"
 "http://www.w3.org/TR/2001/REC-SVG-20010904/DTD/svg10.dtd">
<svg version="1.0" xmlns="http://www.w3.org/2000/svg" 
 width="619.000000pt" height="403.000000pt" viewBox="0 0 619.000000 403.000000"
 preserveAspectRatio="xMidYMid meet">

<g transform="translate(0.000000,403.000000) scale(0.100000,-0.100000)"
fill="#ffffff" stroke="none">
<path d="M2787 3178 c-43 -4 -105 -14 -137 -22 -311 -80 -530 -363 -530 -685
0 -103 14 -168 56 -260 44 -96 103 -171 184 -236 87 -69 132 -92 350 -175 367
-140 526 -203 580 -231 84 -41 154 -110 192 -187 31 -63 33 -72 33 -177 0
-100 -3 -116 -28 -170 -52 -112 -125 -165 -239 -173 -76 -5 -167 10 -234 38
-60 26 -141 110 -184 190 -31 60 -35 75 -42 189 -9 142 -30 202 -93 266 -60
59 -134 87 -230 87 -142 -1 -255 -66 -320 -183 -28 -50 -30 -61 -30 -159 0
-103 1 -108 39 -185 57 -115 127 -183 231 -222 44 -17 127 -41 185 -54 100
-23 123 -24 455 -24 336 0 353 1 430 23 177 51 277 103 355 181 61 62 130 151
130 169 0 8 16 39 34 70 47 77 71 201 63 332 -12 194 -84 337 -229 457 -86 71
-367 206 -634 303 -188 69 -267 109 -346 174 -132 110 -174 192 -166 330 8
129 61 221 155 270 54 28 162 48 217 41 121 -16 244 -103 297 -211 30 -61 32
-72 33 -182 2 -103 5 -123 28 -172 37 -79 116 -156 181 -175 102 -30 235 -13
307 40 64 47 117 123 134 191 21 84 20 132 -5 206 -44 130 -107 202 -230 261
-122 59 -201 68 -582 70 -183 1 -367 -1 -410 -5z"/>
<path d="M4232 2019 c-48 -24 -92 -89 -92 -135 1 -44 34 -108 69 -133 76 -54
160 -29 205 61 14 28 26 62 26 75 0 40 -26 89 -63 117 -49 37 -92 42 -145 15z"/>
<path d="M1816 1996 c-21 -8 -51 -27 -67 -42 -60 -57 -26 -170 65 -214 23 -11
51 -20 63 -20 49 0 133 87 133 137 0 41 -31 93 -69 118 -49 32 -79 37 -125 21z"/>
<path d="M4184 1201 c-18 -11 -45 -36 -60 -57 -62 -80 -26 -207 70 -254 111
-53 231 8 261 132 15 58 -45 157 -112 184 -47 20 -122 17 -159 -5z m163 -36
c38 -26 63 -79 63 -130 0 -42 -5 -52 -40 -88 -40 -39 -41 -40 -101 -34 -80 7
-104 24 -119 86 -16 67 -5 109 38 148 31 28 43 33 87 33 29 0 60 -6 72 -15z"/>
<path d="M4197 1134 c-3 -4 -1 -16 5 -27 6 -13 8 -46 4 -89 -5 -57 -4 -68 9
-68 8 0 23 16 32 35 9 19 19 35 22 35 3 0 16 -16 29 -35 22 -35 45 -45 57 -25
3 5 -1 20 -9 32 -18 25 -21 74 -6 83 19 12 10 42 -15 53 -27 13 -117 16 -128
6z m88 -37 c10 -8 15 -19 11 -25 -10 -17 -33 -15 -40 4 -14 36 -3 44 29 21z"/>
<path d="M820 724 c-59 -15 -429 -22 -489 -9 l-31 7 0 -96 c0 -120 19 -137 49
-44 24 75 113 117 127 61 10 -37 -5 -462 -16 -483 -5 -10 -21 -21 -35 -24 -14
-4 -25 -12 -25 -19 0 -9 37 -12 145 -13 118 -1 145 2 145 13 0 8 -14 19 -30
25 -17 5 -35 18 -40 28 -11 20 -14 440 -4 478 14 52 93 10 117 -63 8 -22 18
-39 23 -38 5 1 14 30 19 65 6 35 13 59 16 53 3 -5 7 -124 8 -263 l1 -252 -25
-12 c-51 -23 -27 -33 80 -33 58 -1 105 2 105 6 0 3 -8 17 -18 30 -16 20 -20
50 -25 161 -6 129 -6 138 12 148 26 14 74 13 89 -2 8 -8 12 -58 12 -159 0
-138 -1 -147 -20 -152 -11 -3 -20 -11 -20 -19 0 -11 21 -14 103 -13 56 0 103
4 105 8 6 18 0 26 -20 29 -22 3 -23 7 -28 159 -4 139 -7 160 -25 179 -47 53
-115 59 -183 18 l-33 -20 3 128 c3 148 7 144 -92 118z"/>
<path d="M4993 722 c-56 -18 -63 -27 -35 -48 15 -11 17 -36 17 -271 0 -237 -1
-258 -17 -261 -14 -3 -18 3 -18 22 0 19 -5 26 -20 26 -19 0 -20 7 -20 110 0
123 -9 150 -60 193 -37 32 -84 42 -147 32 -81 -12 -147 -106 -94 -135 28 -15
50 -12 75 8 24 18 23 39 -2 60 -26 20 5 37 61 33 22 -1 51 -65 43 -96 -4 -15
-27 -33 -71 -54 -72 -36 -122 -80 -131 -117 -15 -57 56 -134 123 -134 24 0 38
7 54 29 l22 30 17 -22 c18 -21 24 -22 259 -23 133 0 244 3 247 7 2 4 -6 15
-18 24 -23 15 -23 18 -19 200 3 156 1 185 -11 185 -20 0 -132 -22 -138 -27 -3
-2 6 -13 20 -23 25 -19 25 -19 22 -172 -3 -130 -6 -155 -20 -166 -41 -31 -45
6 -47 453 0 172 4 167 -92 137z m-218 -456 c10 -79 6 -90 -36 -94 -41 -3 -69
17 -69 50 0 19 73 98 91 98 4 0 11 -24 14 -54z"/>
<path d="M1776 705 c-80 -28 -123 -97 -113 -182 8 -71 48 -119 147 -173 47
-26 97 -59 113 -74 35 -35 36 -83 2 -120 -55 -60 -176 -11 -224 91 -14 29 -29
53 -33 53 -5 0 -8 -43 -8 -95 0 -91 5 -106 26 -85 6 6 29 4 64 -5 30 -8 82
-15 114 -15 54 0 64 4 112 41 35 27 58 54 69 82 l17 42 13 -37 c42 -122 134
-160 241 -99 48 28 92 76 80 88 -3 3 -19 -6 -36 -21 -73 -60 -174 -8 -196 102
l-6 30 110 7 c60 4 115 11 122 15 24 15 5 88 -31 126 -102 105 -245 48 -304
-121 -6 -18 -8 -17 -19 10 -18 41 -36 55 -151 117 -105 57 -132 87 -121 133 4
14 16 34 29 46 18 17 31 20 70 16 60 -5 95 -30 124 -87 39 -75 43 -72 43 28 0
69 -3 92 -13 92 -7 0 -17 -4 -23 -10 -6 -6 -27 -4 -58 5 -60 18 -109 18 -160
0z m498 -227 c7 -13 16 -37 19 -55 9 -46 -12 -63 -79 -63 l-55 0 7 38 c9 50
23 85 37 94 23 15 57 8 71 -14z"/>
<path d="M5157 692 c-10 -10 -17 -33 -17 -50 0 -25 6 -35 30 -47 40 -21 59
-19 81 8 25 30 24 59 -4 85 -28 27 -68 28 -90 4z"/>
<path d="M3676 679 c-20 -16 -25 -26 -20 -43 17 -57 65 -72 102 -33 27 28 28
58 4 80 -25 23 -54 21 -86 -4z"/>
<path d="M5680 578 c-44 -45 -80 -83 -80 -85 0 -2 12 -8 26 -14 l27 -10 -7
-138 c-7 -128 -6 -142 13 -179 22 -43 66 -68 103 -59 40 11 109 61 115 85 8
31 -3 39 -26 18 -11 -10 -31 -16 -47 -14 -37 4 -42 30 -36 176 l5 112 43 0
c40 0 44 2 44 24 0 21 -5 25 -37 28 l-38 3 -3 68 c-2 37 -7 67 -13 67 -5 0
-46 -37 -89 -82z"/>
<path d="M3518 622 c-27 -18 -128 -119 -128 -128 0 -3 6 -11 13 -19 10 -9 14
-47 14 -133 1 -138 12 -181 54 -217 39 -32 100 -34 129 -5 18 18 21 26 20 57
0 4 -16 6 -35 4 -30 -2 -36 1 -45 24 -15 40 -13 255 3 260 6 2 34 6 60 10 l48
6 -3 -173 c-2 -95 -7 -180 -11 -188 -6 -13 5 -15 75 -15 87 0 113 14 59 33
-29 10 -31 13 -26 54 2 24 7 105 10 180 l5 137 -57 -1 c-32 -1 -79 1 -105 5
l-47 8 -3 59 -3 60 -27 -18z"/>
<path d="M1297 516 c-51 -19 -72 -39 -102 -99 -79 -160 48 -359 203 -317 60
16 177 130 134 130 -5 0 -17 -9 -27 -20 -10 -11 -36 -25 -58 -31 -47 -13 -82
-1 -122 41 -25 26 -49 93 -37 104 3 4 51 6 108 6 56 0 109 3 118 6 24 9 20 75
-7 115 -49 73 -122 96 -210 65z m98 -32 c11 -12 15 -31 13 -68 l-3 -51 -62 -3
-62 -3 6 38 c3 21 12 53 19 71 11 26 19 32 43 32 16 0 37 -7 46 -16z"/>
<path d="M2465 515 c-38 -7 -72 -13 -74 -14 -3 0 5 -11 16 -23 18 -20 21 -41
27 -165 l6 -143 -30 -26 c-16 -15 -27 -31 -24 -35 7 -13 181 -11 189 1 4 6 -3
18 -14 28 -18 15 -20 30 -22 151 -2 129 -1 135 20 153 31 24 67 23 85 -4 13
-18 16 -51 16 -155 0 -133 0 -134 -25 -145 -14 -6 -25 -17 -25 -24 0 -9 26
-11 108 -7 59 3 108 10 110 14 2 5 16 2 32 -6 16 -8 49 -15 74 -15 39 0 52 6
86 36 l40 36 22 -27 c21 -27 73 -55 102 -55 9 0 31 14 49 30 l35 30 16 -25
c11 -17 26 -25 44 -25 32 0 42 7 65 40 23 33 21 40 -5 37 -23 -2 -23 0 -28
140 -5 133 -7 143 -29 167 -68 73 -224 46 -246 -41 -8 -35 15 -53 66 -53 33 0
37 2 32 23 -2 12 -10 32 -16 45 -11 24 1 41 31 42 18 0 51 -36 58 -65 13 -52
-2 -73 -79 -111 -39 -20 -80 -43 -89 -51 -16 -14 -20 -13 -43 15 -14 17 -54
51 -88 75 -35 25 -69 52 -76 61 -34 41 27 98 81 77 18 -7 30 -23 40 -52 8 -24
19 -44 25 -46 12 -4 23 29 23 73 0 27 -5 32 -39 42 -59 18 -100 14 -148 -13
-112 -66 -93 -180 41 -244 70 -33 91 -59 82 -97 -14 -55 -121 -32 -137 29 -8
30 -38 59 -52 50 -5 -3 -5 -28 -2 -55 6 -45 5 -50 -11 -46 -17 3 -19 17 -24
159 -6 176 -13 198 -77 217 -49 15 -80 7 -122 -32 l-33 -31 6 38 c4 20 6 36 4
36 -2 -1 -34 -7 -73 -14z m795 -258 c0 -70 -10 -87 -52 -87 -61 0 -54 93 10
132 15 10 30 18 35 18 4 0 7 -28 7 -63z"/>
<path d="M3917 516 c-93 -25 -147 -109 -147 -226 0 -70 24 -111 94 -157 42
-29 57 -33 113 -33 55 0 71 4 109 30 24 17 48 39 54 50 40 75 31 222 -17 272
-63 66 -127 86 -206 64z m83 -26 c28 -15 41 -66 47 -185 5 -102 4 -112 -17
-137 -33 -42 -81 -39 -116 8 -25 32 -28 47 -32 125 -5 105 2 153 29 180 21 21
59 25 89 9z"/>
<path d="M4205 517 c-27 -6 -52 -12 -54 -14 -2 -1 7 -13 21 -26 24 -22 25 -30
31 -167 3 -78 3 -148 1 -155 -3 -7 -16 -17 -30 -24 -38 -17 -20 -30 39 -29 29
0 71 -2 94 -6 34 -6 43 -4 51 10 8 14 4 24 -19 45 l-29 27 0 125 c0 119 1 127
22 141 12 9 32 16 45 16 42 0 50 -22 58 -148 8 -138 3 -175 -28 -189 -19 -9
-16 -11 28 -18 28 -4 64 -10 82 -15 45 -11 60 8 45 58 -6 20 -13 94 -15 164
-3 125 -4 128 -33 165 -17 20 -43 40 -58 44 -30 8 -108 -14 -127 -37 -17 -21
-27 -17 -31 14 -4 32 -19 35 -93 19z"/>
<path d="M5384 511 c-44 -27 -84 -82 -84 -117 0 -50 39 -92 125 -137 87 -45
103 -71 69 -108 -31 -34 -68 -24 -121 31 -26 27 -51 50 -55 50 -5 0 -8 -26 -8
-58 l0 -58 38 -2 c20 -1 62 -4 92 -7 45 -5 61 -2 88 14 44 28 72 77 72 127 0
50 -34 86 -135 141 -76 42 -87 61 -56 92 41 41 96 19 132 -50 11 -22 24 -37
29 -34 6 4 10 30 10 59 0 53 0 53 -39 64 -57 18 -122 15 -157 -7z"/>
</g>
</svg>
