<?xml version="1.0" encoding="UTF-8"?>
<svg version="1.1" xmlns="http://www.w3.org/2000/svg" width="51" height="34">
<path d="M0 0 C2.63072556 2.0378583 5.16446256 4.16530739 7.69506836 6.32714844 C8.57678711 7.05804688 9.45850586 7.78894531 10.36694336 8.54199219 C22.78441696 19.20482278 30.4459024 31.57791429 38.24511719 45.73754883 C43.78562746 55.6328498 48.69874835 63.9680852 59.69506836 68.32714844 C65.46681424 69.37566594 71.76815491 68.6280825 76.69506836 65.32714844 C78.83373359 62.87877434 80.75067013 60.31540435 82.69897461 57.71386719 C86.0994091 53.64798564 89.67247434 51.78593503 94.88256836 50.99511719 C103.3635912 50.59756924 109.65278529 53.10988405 116.07006836 58.57714844 C122.26153009 64.49023437 124.16377401 70.01420493 125.00756836 78.45214844 C124.31293434 87.06561034 121.0783009 94.07393317 115.11694336 100.31542969 C104.00319717 109.54700918 91.5067012 110.48427276 77.69506836 109.32714844 C74.25034126 108.49316188 71.65047443 107.24910761 68.69506836 105.32714844 C68.03893555 104.96492188 67.38280273 104.60269531 66.70678711 104.22949219 C57.63936821 99.03553379 49.61269164 91.62477703 44.69506836 82.32714844 C44.69506836 81.00714844 44.69506836 79.68714844 44.69506836 78.32714844 C44.03506836 78.32714844 43.37506836 78.32714844 42.69506836 78.32714844 C42.65381836 79.15214844 42.61256836 79.97714844 42.57006836 80.82714844 C40.48120516 89.18260122 32.52818091 97.1283355 25.32006836 101.63964844 C16.18986566 105.88991521 4.44034848 107.33495095 -5.30493164 104.32714844 C-5.03938477 105.07738281 -4.77383789 105.82761719 -4.50024414 106.60058594 C-1.14241891 116.33092619 1.02793262 125.00835626 0.69506836 135.32714844 C1.60643555 135.25496094 2.51780273 135.18277344 3.45678711 135.10839844 C58.11068428 131.19289536 58.11068428 131.19289536 78.94506836 148.45214844 C89.19273562 158.09513968 90.57538799 170.75500166 91.02954102 184.20068359 C91.45000417 209.50445992 80.42656619 233.68566525 63.12451172 251.85107422 C61.65848693 253.35389426 60.17906325 254.8421033 58.69506836 256.32714844 C57.99124023 257.05417969 57.28741211 257.78121094 56.56225586 258.53027344 C36.81556175 277.58002541 8.63092625 286.06729381 -18.29467773 285.72949219 C-54.96614206 284.58614804 -86.992206 265.77774273 -113.30493164 241.32714844 C-115.36500796 239.42867336 -117.42862148 237.53406285 -119.49243164 235.63964844 C-119.99943604 235.17333008 -120.50644043 234.70701172 -121.02880859 234.2265625 C-124.71892916 230.84037687 -128.47208447 227.55022446 -132.30493164 224.32714844 C-132.57047852 224.91367187 -132.83602539 225.50019531 -133.10961914 226.10449219 C-136.21367152 231.87640658 -141.09344131 235.95819383 -147.33227539 237.89355469 C-153.45992678 239.2404246 -157.81331812 238.22272648 -163.30493164 235.32714844 C-169.23074329 231.49279972 -171.45851438 227.09734506 -173.30493164 220.32714844 C-174.36034246 210.97922401 -171.75161076 201.48268207 -166.29321289 193.85058594 C-165.12352097 192.35015668 -165.12352097 192.35015668 -165.30493164 190.32714844 C-166.97090278 189.02122235 -168.69130303 187.78465551 -170.42993164 186.57714844 C-175.66420916 182.8100608 -180.30990983 178.63586802 -184.86743164 174.07714844 C-185.46249512 173.48708008 -186.05755859 172.89701172 -186.6706543 172.2890625 C-191.0011977 167.89013555 -194.70028962 163.97593971 -194.92993164 157.51464844 C-194.78847725 152.25726031 -192.78548998 149.63166226 -189.22680664 145.92089844 C-184.17248362 141.72950861 -179.64569298 141.8003196 -173.30493164 142.32714844 C-163.66404525 143.28780616 -157.35446169 151.45715367 -151.30493164 158.32714844 C-150.27889955 159.64055467 -149.26317417 160.96349561 -148.30493164 162.32714844 C-147.6874707 161.77027344 -147.07000977 161.21339844 -146.43383789 160.63964844 C-144.66026964 159.04154737 -142.88126117 157.44947062 -141.09790039 155.86230469 C-139.33565869 154.26273146 -137.60384351 152.6283552 -135.91821289 150.94824219 C-129.62726498 144.81099981 -129.62726498 144.81099981 -125.36743164 144.26464844 C-119.97335769 144.9203986 -116.50605837 149.0218013 -112.86791992 152.73339844 C-111.04112592 154.59614621 -109.1874246 156.43014616 -107.33227539 158.26464844 C-103.63479314 161.93085132 -99.96289011 165.62154121 -96.30493164 169.32714844 C-96.63493164 168.33714844 -96.96493164 167.34714844 -97.30493164 166.32714844 C-97.58079204 164.84844662 -97.82936173 163.36453613 -98.05883789 161.87792969 C-98.1909668 161.03037109 -98.3230957 160.1828125 -98.45922852 159.30957031 C-98.59393555 158.42849609 -98.72864258 157.54742187 -98.86743164 156.63964844 C-99.00600586 155.74697266 -99.14458008 154.85429687 -99.28735352 153.93457031 C-99.62885984 151.73244331 -99.96796187 149.52997341 -100.30493164 147.32714844 C-101.05516602 147.36195313 -101.80540039 147.39675781 -102.57836914 147.43261719 C-111.65273671 147.67261935 -119.35056524 147.05639035 -126.61743164 141.20214844 C-136.28774824 131.78528771 -138.27948802 119.06956577 -138.60766602 106.05639648 C-138.76064593 73.09305001 -129.29716138 41.07493284 -106.46118164 16.63574219 C-104.48520857 14.52016233 -102.60977325 12.35075066 -100.74243164 10.13964844 C-74.42230055 -19.70977296 -31.81917346 -23.45682465 0 0 Z M-104.30493164 24.32714844 C-121.76013935 44.9856244 -130.74929868 71.85860503 -130.61743164 98.70214844 C-130.61251709 99.88663574 -130.60760254 101.07112305 -130.60253906 102.29150391 C-130.44936506 113.71749882 -129.89058746 126.06938569 -122.30493164 135.32714844 C-116.20997173 140.33172561 -109.54699816 140.47741373 -101.99243164 140.38964844 C-100.88158203 140.38288086 -100.88158203 140.38288086 -99.74829102 140.37597656 C-97.93380265 140.36427019 -96.1193563 140.34633742 -94.30493164 140.32714844 C-95.56582501 136.71303696 -97.27299492 133.7283713 -99.42749023 130.57128906 C-112.03817085 112.08735343 -116.42645999 89.67437379 -112.36743164 67.63964844 C-108.40772247 53.12694079 -99.06422343 37.55231212 -87.42602539 28.06933594 C-85.01321129 26.08754019 -82.76912478 23.96357138 -80.49243164 21.82714844 C-63.15518391 6.28431904 -42.75944 1.80589287 -20.30493164 -0.67285156 C-49.72964209 -20.28932519 -84.67036445 2.08133446 -104.30493164 24.32714844 Z M-52.67993164 11.95214844 C-53.32696045 12.3033374 -53.97398926 12.65452637 -54.640625 13.01635742 C-63.20315501 17.79175775 -74.0527063 24.5704724 -77.30493164 34.32714844 C-75.98493164 34.32714844 -74.66493164 34.32714844 -73.30493164 34.32714844 C-73.30493164 37.29714844 -73.30493164 40.26714844 -73.30493164 43.32714844 C-71.32493164 43.32714844 -69.34493164 43.32714844 -67.30493164 43.32714844 C-67.30493164 39.36714844 -67.30493164 35.40714844 -67.30493164 31.32714844 C-64.97198389 31.28473121 -62.63790597 31.28621906 -60.30493164 31.32714844 C-58.65747568 32.9746044 -59.13397004 34.88050294 -59.11743164 37.13964844 C-59.10325195 38.01234375 -59.08907227 38.88503906 -59.07446289 39.78417969 C-59.31482759 42.43633929 -59.96305856 44.05179842 -61.30493164 46.32714844 C-59.34026751 47.39490068 -57.33637805 48.39268309 -55.30493164 49.32714844 C-54.31493164 48.83214844 -54.31493164 48.83214844 -53.30493164 48.32714844 C-53.36680664 47.31652344 -53.42868164 46.30589844 -53.49243164 45.26464844 C-53.27850337 40.77215472 -52.25879632 38.31628882 -50.30493164 34.32714844 C-47.99493164 34.32714844 -45.68493164 34.32714844 -43.30493164 34.32714844 C-43.0219794 39.79755841 -42.93401696 43.72023171 -46.30493164 48.32714844 C-49.49243164 49.20214844 -49.49243164 49.20214844 -52.30493164 49.32714844 C-49.1771175 51.85345986 -46.00915754 53.7508821 -42.30493164 55.32714844 C-41.31493164 54.99714844 -40.32493164 54.66714844 -39.30493164 54.32714844 C-38.2828954 51.93033778 -37.43027047 49.60656602 -36.61743164 47.13964844 C-28.92144744 25.66732043 -28.92144744 25.66732043 -19.80493164 20.63964844 C-12.61428119 17.64354408 -4.97475949 16.43674282 2.69506836 15.32714844 C2.69506836 14.66714844 2.69506836 14.00714844 2.69506836 13.32714844 C0.69750927 12.52934283 -1.30312049 11.73922418 -3.30493164 10.95214844 C-4.41868164 10.51128906 -5.53243164 10.07042969 -6.67993164 9.61621094 C-13.86721375 7.06038864 -20.17089283 6.00362639 -27.80493164 6.07714844 C-29.00956055 6.06554687 -29.00956055 6.06554687 -30.23852539 6.05371094 C-38.62662795 6.0809009 -45.34800503 7.93360472 -52.67993164 11.95214844 Z M-23.30493164 30.32714844 C-25.05536214 33.22805243 -25.05536214 33.22805243 -24.99243164 36.51464844 C-24.44979417 38.31907413 -24.44979417 38.31907413 -23.30493164 39.32714844 C-11.04281654 40.35179093 3.68065406 39.19561681 13.69506836 31.32714844 C15.09634347 28.90971698 15.09634347 28.90971698 14.69506836 26.32714844 C12.01460217 22.57449578 9.1289441 21.29453951 4.69506836 20.32714844 C-6.12145461 19.2029114 -15.95610694 21.97621127 -23.30493164 30.32714844 Z M5.63256836 38.76464844 C-2.00207254 41.34323576 -9.13937246 42.47399241 -17.17993164 42.88964844 C-17.96368164 42.93283203 -18.74743164 42.97601563 -19.55493164 43.02050781 C-21.47143813 43.12568195 -23.38816497 43.22682769 -25.30493164 43.32714844 C-24.97493164 47.94714844 -24.64493164 52.56714844 -24.30493164 57.32714844 C-23.21180664 56.41964844 -22.11868164 55.51214844 -20.99243164 54.57714844 C-13.35963708 48.8963031 -4.81701608 46.04963548 4.69506836 47.32714844 C13.25000266 49.25131651 19.51500523 53.13261632 24.69506836 60.32714844 C27.14125534 65.80194786 27.61714354 70.76582849 25.57006836 76.45214844 C22.78178616 80.72751448 19.58843828 83.40247941 15.00756836 85.63964844 C7.48447343 87.2010455 0.40342673 87.29740135 -6.30493164 83.32714844 C-10.75059292 78.5305139 -11.52531491 75.82845493 -11.30493164 69.32714844 C-11.05743164 68.44027344 -10.80993164 67.55339844 -10.55493164 66.63964844 C-10.47243164 65.87652344 -10.38993164 65.11339844 -10.30493164 64.32714844 C-12.13851499 61.99260183 -12.13851499 61.99260183 -14.30493164 60.32714844 C-19.74296783 66.81770776 -19.88679378 72.06031464 -19.30493164 80.32714844 C-17.1500873 87.17194812 -11.92267426 90.92478632 -5.80493164 94.20214844 C1.71610817 96.65051812 11.274773 96.7282049 18.63256836 93.76464844 C25.03398871 90.32237523 31.11845691 85.54827125 34.07006836 78.74902344 C36.6937695 68.5821815 34.84409052 58.46331316 29.63842773 49.50976562 C25.65276093 42.54374106 25.65276093 42.54374106 20.69506836 36.32714844 C15.11605015 35.93526338 10.81451172 36.97488113 5.63256836 38.76464844 Z M3.69506836 53.32714844 C3.36506836 54.97714844 3.03506836 56.62714844 2.69506836 58.32714844 C3.2609668 58.5346875 3.82686523 58.74222656 4.40991211 58.95605469 C6.70539254 59.92023715 8.67885674 60.86081272 10.69506836 62.32714844 C11.68883202 65.86743148 11.69506836 68.68322999 11.69506836 72.32714844 C8.72506836 72.65714844 5.75506836 72.98714844 2.69506836 73.32714844 C2.03506836 72.33714844 1.37506836 71.34714844 0.69506836 70.32714844 C-1.86775906 69.59749478 -1.86775906 69.59749478 -4.30493164 69.32714844 C-4.72161633 73.57733223 -4.74515246 75.68057412 -2.30493164 79.26464844 C1.44475606 81.84255873 4.33326245 82.09990933 8.69506836 81.32714844 C13.81883451 79.51876038 16.80054883 76.92432652 19.69506836 72.32714844 C20.66261266 67.63245521 20.14343928 64.25838035 18.07006836 59.95214844 C13.95540732 55.40436519 9.68356773 54.04006503 3.69506836 53.32714844 Z M-32.30493164 57.32714844 C-37.82310088 70.72589803 -42.96146436 84.26268297 -48.05493164 97.82714844 C-48.38244415 98.69718506 -48.70995667 99.56722168 -49.0473938 100.46362305 C-55.97688243 116.03638261 -55.97688243 116.03638261 -59.30493164 132.32714844 C-49.65681233 133.59247556 -40.57115102 133.58288139 -30.93383789 132.31542969 C-30.19750122 132.22088501 -29.46116455 132.12634033 -28.70251465 132.02893066 C-26.90299593 131.79751183 -25.10391661 131.56268055 -23.30493164 131.32714844 C-25.58680426 106.65538128 -27.88939336 81.98623219 -30.30493164 57.32714844 C-30.96493164 57.32714844 -31.62493164 57.32714844 -32.30493164 57.32714844 Z M92.82006836 58.70214844 C91.5053317 60.27180858 91.5053317 60.27180858 91.69506836 62.32714844 C91.03506836 62.32714844 90.37506836 62.32714844 89.69506836 62.32714844 C88.09658774 63.98452118 88.09658774 63.98452118 86.44506836 66.07714844 C81.28516776 72.13815434 76.82622633 74.99118077 68.80444336 75.64355469 C67.35153917 75.72940812 65.89839836 75.81133295 64.44506836 75.88964844 C63.32745117 75.95442383 63.32745117 75.95442383 62.18725586 76.02050781 C60.35671936 76.12611569 58.5259166 76.22709045 56.69506836 76.32714844 C57.47553194 81.47470034 59.15071547 83.60990028 62.69506836 87.32714844 C63.35506836 87.32714844 64.01506836 87.32714844 64.69506836 87.32714844 C64.69506836 87.98714844 64.69506836 88.64714844 64.69506836 89.32714844 C71.61853125 95.07214956 79.36163439 96.80315438 88.17944336 96.57324219 C95.71453408 95.83611375 101.67688823 93.0343533 106.69506836 87.32714844 C111.31158718 81.22187059 111.51111664 74.75318775 110.69506836 67.32714844 C110.0974132 64.29618298 109.45993316 63.0029112 107.69506836 60.32714844 C103.12833191 57.65603844 97.53423315 55.24509425 92.82006836 58.70214844 Z M-96.30493164 68.32714844 C-98.65306898 70.25882242 -98.65306898 70.25882242 -98.67993164 73.70214844 C-98.23858058 77.96854205 -97.50498517 78.65396681 -94.30493164 81.32714844 C-87.62087787 84.72624979 -80.00512327 84.60630256 -72.67993164 84.63964844 C-71.35650757 84.64786621 -71.35650757 84.64786621 -70.00634766 84.65625 C-63.02801956 84.5806889 -55.55964473 84.32776582 -49.74243164 80.07714844 C-47.00528662 77.51993325 -47.00528662 77.51993325 -46.92993164 74.01464844 C-47.05368164 73.12777344 -47.17743164 72.24089844 -47.30493164 71.32714844 C-48.39805664 70.66714844 -49.49118164 70.00714844 -50.61743164 69.32714844 C-51.23231445 68.95589844 -51.84719727 68.58464844 -52.48071289 68.20214844 C-54.4185509 67.11090845 -54.4185509 67.11090845 -57.30493164 67.32714844 C-57.54727539 67.95363281 -57.78961914 68.58011719 -58.03930664 69.22558594 C-58.37446289 70.04285156 -58.70961914 70.86011719 -59.05493164 71.70214844 C-59.37977539 72.51425781 -59.70461914 73.32636719 -60.03930664 74.16308594 C-61.54936031 76.74509128 -62.49523969 77.37703561 -65.30493164 78.32714844 C-71.35659523 79.10768126 -77.17720076 78.81400544 -82.30493164 75.32714844 C-84.05148263 72.10872659 -85.24772162 68.8271046 -86.30493164 65.32714844 C-90.20948122 65.32714844 -92.79867478 66.66964519 -96.30493164 68.32714844 Z M-100.30493164 85.32714844 C-101.71016825 86.5221875 -101.71016825 86.5221875 -101.67993164 89.95214844 C-101.49431783 104.54603394 -92.71752991 120.66813305 -83.30493164 131.32714844 C-82.74032227 132.09027344 -82.17571289 132.85339844 -81.59399414 133.63964844 C-79.25155419 135.66736864 -79.25155419 135.66736864 -75.41040039 135.71386719 C-72.583567 135.18674166 -71.55477067 134.63021304 -69.7097168 132.39208984 C-68.1729048 129.69829839 -66.87607461 126.97408737 -65.61743164 124.13964844 C-65.14974365 123.14690918 -64.68205566 122.15416992 -64.20019531 121.13134766 C-60.7538774 113.69357248 -57.72456322 106.16087278 -55.30493164 98.32714844 C-56.62493164 97.99714844 -57.94493164 97.66714844 -59.30493164 97.32714844 C-59.96493164 99.30714844 -60.62493164 101.28714844 -61.30493164 103.32714844 C-66.05493164 104.45214844 -66.05493164 104.45214844 -68.30493164 103.32714844 C-68.93774414 101.04199219 -68.93774414 101.04199219 -69.42993164 98.26464844 C-69.59750977 97.34554687 -69.76508789 96.42644531 -69.93774414 95.47949219 C-70.05891602 94.76921875 -70.18008789 94.05894531 -70.30493164 93.32714844 C-71.62493164 93.32714844 -72.94493164 93.32714844 -74.30493164 93.32714844 C-74.63493164 96.62714844 -74.96493164 99.92714844 -75.30493164 103.32714844 C-77.28493164 103.32714844 -79.26493164 103.32714844 -81.30493164 103.32714844 C-82.45308161 101.0308485 -82.61262973 99.25016758 -82.86743164 96.70214844 C-82.9512207 95.88488281 -83.03500977 95.06761719 -83.12133789 94.22558594 C-83.18192383 93.59910156 -83.24250977 92.97261719 -83.30493164 92.32714844 C-81.98493164 91.99714844 -80.66493164 91.66714844 -79.30493164 91.32714844 C-82.05230541 90.31937815 -84.80243116 89.32073398 -87.55493164 88.32714844 C-88.33223633 88.04097656 -89.10954102 87.75480469 -89.91040039 87.45996094 C-90.66450195 87.18925781 -91.41860352 86.91855469 -92.19555664 86.63964844 C-92.88681641 86.38828125 -93.57807617 86.13691406 -94.2902832 85.87792969 C-96.59990276 85.15134123 -96.59990276 85.15134123 -100.30493164 85.32714844 Z M-53.30493164 142.32714844 C-53.67575075 149.52570155 -53.67575075 149.52570155 -52.24243164 156.51464844 C-50.29511807 158.71117075 -50.29511807 158.71117075 -46.61743164 158.63964844 C-45.52430664 158.53652344 -44.43118164 158.43339844 -43.30493164 158.32714844 C-42.63232813 156.55856153 -41.96704769 154.78718828 -41.30493164 153.01464844 C-40.74805664 151.53544922 -40.74805664 151.53544922 -40.17993164 150.02636719 C-39.15074662 147.32443188 -39.15074662 147.32443188 -39.30493164 144.32714844 C-36.33493164 144.82214844 -36.33493164 144.82214844 -33.30493164 145.32714844 C-33.13477539 146.02582031 -32.96461914 146.72449219 -32.78930664 147.44433594 C-32.54696289 148.35441406 -32.30461914 149.26449219 -32.05493164 150.20214844 C-31.82290039 151.10707031 -31.59086914 152.01199219 -31.35180664 152.94433594 C-30.50578985 155.47672448 -30.50578985 155.47672448 -28.19555664 156.64746094 C-27.57165039 156.87175781 -26.94774414 157.09605469 -26.30493164 157.32714844 C-23.47754521 154.77338005 -21.73127194 153.16421117 -21.30493164 149.32714844 C-21.18908633 146.63637777 -21.21643237 144.02637629 -21.30493164 141.32714844 C-23.49179461 139.14028547 -27.91436947 140.14058087 -30.86376953 140.13769531 C-38.42158654 140.215987 -45.83812583 141.22822301 -53.30493164 142.32714844 Z M-13.30493164 140.32714844 C-13.1637245 142.26499109 -13.01680291 144.20241798 -12.86743164 146.13964844 C-12.7862207 147.21859375 -12.70500977 148.29753906 -12.62133789 149.40917969 C-12.40280703 152.38704748 -12.40280703 152.38704748 -11.30493164 155.32714844 C-9.65493164 155.32714844 -8.00493164 155.32714844 -6.30493164 155.32714844 C-5.45832824 153.93932358 -4.62817825 152.54145447 -3.80493164 151.13964844 C-3.34086914 150.36234375 -2.87680664 149.58503906 -2.39868164 148.78417969 C-1.19763517 146.08611458 -1.09752121 144.24645024 -1.30493164 141.32714844 C-3.82968626 140.06477113 -5.6169363 140.22858439 -8.42993164 140.26464844 C-9.34000977 140.27367187 -10.25008789 140.28269531 -11.18774414 140.29199219 C-12.23575195 140.30939453 -12.23575195 140.30939453 -13.30493164 140.32714844 Z M6.69506836 141.32714844 C6.40830165 147.54042724 6.43661601 151.933848 9.69506836 157.32714844 C12.2723975 158.37882371 12.2723975 158.37882371 14.69506836 158.32714844 C17.7988732 153.82162528 19.84811809 150.66318208 19.75756836 145.13964844 C19.73694336 143.88152344 19.71631836 142.62339844 19.69506836 141.32714844 C15.40506836 141.32714844 11.11506836 141.32714844 6.69506836 141.32714844 Z M-61.30493164 143.32714844 C-62.76440869 143.38720922 -64.22272436 143.47601733 -65.67993164 143.57714844 C-66.49204102 143.62355469 -67.30415039 143.66996094 -68.14086914 143.71777344 C-70.44332374 144.12035596 -70.44332374 144.12035596 -71.57446289 146.13183594 C-73.17771847 150.95017624 -72.73308934 155.08774457 -71.11743164 159.76464844 C-69.53033146 162.54977783 -69.53033146 162.54977783 -66.61743164 163.20214844 C-65.85430664 163.24339844 -65.09118164 163.28464844 -64.30493164 163.32714844 C-60.78312835 158.68477138 -59.60438454 153.06808823 -59.30493164 147.32714844 C-60.16153149 145.04163075 -60.16153149 145.04163075 -61.30493164 143.32714844 Z M26.69506836 144.32714844 C26.81000593 146.22361842 26.93746478 148.11933176 27.07006836 150.01464844 C27.13967773 151.07039062 27.20928711 152.12613281 27.28100586 153.21386719 C27.68266924 156.23392113 28.43575855 158.56792897 29.69506836 161.32714844 C33.01396741 161.05057352 34.45907099 160.54347936 36.94506836 158.26464844 C39.20599653 154.469519 39.39788792 151.71055992 39.69506836 147.32714844 C38.47819336 146.83214844 37.26131836 146.33714844 36.00756836 145.82714844 C35.32307617 145.54871094 34.63858398 145.27027344 33.93334961 144.98339844 C31.42758614 144.24872433 29.29282913 144.21796059 26.69506836 144.32714844 Z M-91.30493164 147.32714844 C-91.53153791 153.67212399 -91.20669583 159.52362006 -88.30493164 165.32714844 C-86.65493164 165.32714844 -85.00493164 165.32714844 -83.30493164 165.32714844 C-82.63555934 162.53610501 -81.96932072 159.74437821 -81.30493164 156.95214844 C-81.11415039 156.15808594 -80.92336914 155.36402344 -80.72680664 154.54589844 C-80.54633789 153.78535156 -80.36586914 153.02480469 -80.17993164 152.24121094 C-79.92856445 151.18861084 -79.92856445 151.18861084 -79.67211914 150.11474609 C-79.23786248 148.30478551 -79.23786248 148.30478551 -79.30493164 146.32714844 C-80.92984118 146.30016654 -82.55487797 146.28076087 -84.17993164 146.26464844 C-85.08485352 146.25304687 -85.98977539 146.24144531 -86.92211914 146.22949219 C-89.32179014 146.16465586 -89.32179014 146.16465586 -91.30493164 147.32714844 Z M-181.11743164 150.26464844 C-183.4074669 152.42382454 -184.50518003 153.97437263 -184.76977539 157.16308594 C-183.27125672 164.13938296 -176.43902273 170.6820184 -171.30493164 175.32714844 C-170.5637207 176.07222656 -169.82250977 176.81730469 -169.05883789 177.58496094 C-163.75463015 182.96308148 -163.75463015 182.96308148 -156.86743164 185.51464844 C-153.19955065 185.6253736 -153.19955065 185.6253736 -150.30493164 183.32714844 C-148.25180079 182.86652811 -146.18726856 182.45568837 -144.11743164 182.07714844 C-136.84524089 180.49447299 -132.47635936 177.49857616 -127.30493164 172.32714844 C-124.01977539 171.83496094 -124.01977539 171.83496094 -120.30493164 172.32714844 C-118.10265316 174.28132601 -116.59633206 175.89246056 -114.86743164 178.20214844 C-114.39934082 178.78915527 -113.93125 179.37616211 -113.44897461 179.98095703 C-112.04595328 181.74731631 -110.67252882 183.53328065 -109.30493164 185.32714844 C-107.85154069 187.20598208 -106.39381439 189.08147786 -104.92993164 190.95214844 C-104.05208008 192.11617187 -104.05208008 192.11617187 -103.15649414 193.30371094 C-100.00199346 196.75103447 -97.48822071 198.17707923 -92.82446289 198.76855469 C-91.60114258 198.80851562 -90.37782227 198.84847656 -89.11743164 198.88964844 C-82.51425919 199.11782089 -82.51425919 199.11782089 -80.30493164 201.32714844 C-77.59270554 201.14122971 -76.56578992 200.61800542 -74.74243164 198.58496094 C-74.26805664 197.88113281 -73.79368164 197.17730469 -73.30493164 196.45214844 C-71.26404051 193.44627074 -69.39768997 191.28241116 -66.30493164 189.32714844 C-62.90472672 189.32714844 -61.56460329 190.10256756 -58.99243164 192.32714844 C-57.41212669 194.03208312 -55.90428574 195.79225672 -54.38696289 197.55371094 C-53.69989258 198.34519531 -53.01282227 199.13667969 -52.30493164 199.95214844 C-51.66555664 200.70753906 -51.02618164 201.46292969 -50.36743164 202.24121094 C-47.11335287 205.53226788 -44.58865939 207.25583023 -39.92993164 207.51464844 C-32.44970537 205.06422949 -28.64679159 197.64461693 -24.85961914 191.11230469 C-23.30493164 189.32714844 -23.30493164 189.32714844 -20.92602539 188.28417969 C-18.30493164 188.32714844 -18.30493164 188.32714844 -15.91040039 190.24121094 C-15.1124707 191.13582031 -14.31454102 192.03042969 -13.49243164 192.95214844 C-8.39514771 198.33639058 -3.70374719 202.90024956 3.75756836 204.38964844 C9.23293233 204.3027379 12.47895078 202.52660348 16.25366211 198.78027344 C18.35595403 196.3994961 20.26798203 193.921559 22.12084961 191.34277344 C30.82662243 179.23447485 30.82662243 179.23447485 36.84350586 177.82324219 C40.65344092 177.71701723 43.41898038 178.51965162 46.69506836 180.32714844 C49.36215905 180.49465258 49.36215905 180.49465258 51.69506836 180.32714844 C53.60114934 177.11532695 53.91773083 174.78832241 53.82006836 171.07714844 C53.80202148 170.18511719 53.78397461 169.29308594 53.76538086 168.37402344 C53.74217773 167.69855469 53.71897461 167.02308594 53.69506836 166.32714844 C53.14077148 166.14539063 52.58647461 165.96363281 52.01538086 165.77636719 C51.29092773 165.525 50.56647461 165.27363281 49.82006836 165.01464844 C48.74112305 164.64919922 48.74112305 164.64919922 47.64038086 164.27636719 C45.69506836 163.32714844 45.69506836 163.32714844 43.69506836 160.32714844 C40.88932556 160.74281404 39.73799901 161.28681964 37.63256836 163.26464844 C34.43318802 165.51102187 33.32955576 165.53302069 29.57006836 165.82714844 C20.91138089 167.08914337 16.09830588 175.02053437 10.98803711 181.48730469 C9.0895648 183.69957408 7.50228128 185.18390918 4.58178711 185.70214844 C0.04568471 185.58016921 -2.60502377 184.46534861 -5.74243164 181.20214844 C-6.29801758 180.57824219 -6.85360352 179.95433594 -7.42602539 179.31152344 C-9.55758092 177.06031718 -11.80151306 175.27968176 -14.30493164 173.45214844 C-15.08868164 172.87722656 -15.87243164 172.30230469 -16.67993164 171.70996094 C-20.07498059 169.92149765 -22.45264956 169.28006499 -26.30493164 169.32714844 C-28.46082963 171.17461594 -29.87478773 172.67679159 -31.55493164 174.88964844 C-36.38470813 180.73411249 -41.304424 184.23988395 -48.30493164 187.32714844 C-48.69938477 186.46089844 -48.69938477 186.46089844 -49.10180664 185.57714844 C-52.26071758 179.66957474 -57.30712587 174.32605132 -63.30493164 171.32714844 C-67.8208744 171.60800903 -69.83880319 173.40272086 -72.99243164 176.51464844 C-84.53190702 187.27908443 -84.53190702 187.27908443 -90.75805664 187.35839844 C-94.41713092 185.87681008 -96.35532543 183.21514226 -98.74243164 180.20214844 C-99.79031478 178.93152364 -100.84121954 177.6633861 -101.89477539 176.39746094 C-102.44504395 175.73391602 -102.9953125 175.07037109 -103.56225586 174.38671875 C-106.54597498 170.86042924 -109.66438102 167.46360346 -112.80493164 164.07714844 C-113.39201904 163.43374512 -113.97910645 162.7903418 -114.58398438 162.12744141 C-115.42038452 161.22856201 -115.42038452 161.22856201 -116.27368164 160.31152344 C-117.00748047 159.5182666 -117.00748047 159.5182666 -117.75610352 158.70898438 C-119.51036582 157.14386385 -121.13039302 156.21380111 -123.30493164 155.32714844 C-127.24272154 155.60885658 -129.27634711 156.78451959 -132.11743164 159.45214844 C-133.14416992 160.38800781 -133.14416992 160.38800781 -134.19165039 161.34277344 C-135.59497848 162.66050111 -136.993474 163.98339519 -138.38696289 165.31152344 C-141.34099839 168.04527713 -143.63837413 170.07385658 -147.42993164 171.51464844 C-153.10855637 171.14430335 -156.88966451 166.95921981 -160.49829102 162.90527344 C-160.95010742 162.38449219 -161.40192383 161.86371094 -161.86743164 161.32714844 C-169.81615394 151.64748604 -169.81615394 151.64748604 -181.11743164 150.26464844 Z M-94.30493164 170.32714844 C-92.25259479 172.57494594 -91.29825903 173.32937264 -88.30493164 174.32714844 C-88.30493164 173.66714844 -88.30493164 173.00714844 -88.30493164 172.32714844 C-90.28493164 171.66714844 -92.26493164 171.00714844 -94.30493164 170.32714844 Z M47.69506836 143.32714844 C48.39631836 144.00777344 49.09756836 144.68839844 49.82006836 145.38964844 C51.88679408 147.47403848 53.91350731 149.58755391 55.88256836 151.76464844 C56.61540039 152.56708984 56.61540039 152.56708984 57.36303711 153.38574219 C61.86789226 159.95146949 60.81019258 166.85745606 59.69506836 174.32714844 C54.95313771 197.18634675 40.22511303 219.4466127 20.60913086 232.35839844 C1.74570953 243.96582559 -19.67086721 248.17181032 -41.41430664 243.36230469 C-64.49679506 237.48665609 -82.69367708 224.34491609 -99.11743164 207.38964844 C-107.34995813 199.09250244 -116.45548321 191.86923928 -127.30493164 187.32714844 C-128.33618164 186.89402344 -129.36743164 186.46089844 -130.42993164 186.01464844 C-138.44815529 184.09724713 -146.23357342 185.45534354 -153.42993164 189.32714844 C-159.99580164 193.7129948 -163.70937965 201.62211564 -165.89477539 209.04199219 C-167.18663378 216.23948895 -165.58896965 221.85202339 -161.55883789 227.83105469 C-159.81903686 229.90689206 -158.57887639 230.28372909 -155.91430664 230.70605469 C-150.29752927 231.17898782 -150.29752927 231.17898782 -145.42211914 228.82324219 C-143.85775668 226.73060025 -142.56957751 224.61279281 -141.30493164 222.32714844 C-140.37198277 220.84510705 -139.43470101 219.36578147 -138.49243164 217.88964844 C-138.09411133 217.2309375 -137.69579102 216.57222656 -137.28540039 215.89355469 C-136.30493164 214.32714844 -136.30493164 214.32714844 -135.30493164 213.32714844 C-129.11487075 213.01561364 -124.95679985 214.65148518 -120.23852539 218.54199219 C-118.35088411 220.28472363 -116.57806945 222.0936517 -114.80493164 223.95214844 C-91.73900421 247.607186 -56.87476925 263.79575917 -23.79052734 264.49365234 C1.26174504 264.75047621 24.814557 257.97255086 44.69506836 242.32714844 C45.42725586 241.781875 46.15944336 241.23660156 46.91381836 240.67480469 C62.43464863 228.18709441 71.01768276 208.16242701 75.69506836 189.32714844 C75.88713867 188.68003906 76.07920898 188.03292969 76.27709961 187.36621094 C78.74092948 175.3464054 76.17153141 162.83137175 70.07006836 152.32714844 C66.59426024 147.57308343 62.29086897 145.03349123 56.69506836 143.32714844 C53.55460631 142.97460026 50.867279 143.071325 47.69506836 143.32714844 Z M28.69506836 206.32714844 C28.03506836 207.64714844 27.37506836 208.96714844 26.69506836 210.32714844 C27.35506836 210.32714844 28.01506836 210.32714844 28.69506836 210.32714844 C28.69506836 210.98714844 28.69506836 211.64714844 28.69506836 212.32714844 C30.34506836 211.99714844 31.99506836 211.66714844 33.69506836 211.32714844 C34.02506836 210.00714844 34.35506836 208.68714844 34.69506836 207.32714844 C31.72506836 206.83214844 31.72506836 206.83214844 28.69506836 206.32714844 Z M-87.30493164 208.32714844 C-87.30493164 209.31714844 -87.30493164 210.30714844 -87.30493164 211.32714844 C-86.31493164 210.99714844 -85.32493164 210.66714844 -84.30493164 210.32714844 C-84.63493164 209.66714844 -84.96493164 209.00714844 -85.30493164 208.32714844 C-85.96493164 208.32714844 -86.62493164 208.32714844 -87.30493164 208.32714844 Z M-69.01196289 213.53417969 C-70.6188627 215.76247882 -70.79507774 217.29116464 -70.99243164 220.01464844 C-71.05817383 220.82289063 -71.12391602 221.63113281 -71.19165039 222.46386719 C-71.2290332 223.07875 -71.26641602 223.69363281 -71.30493164 224.32714844 C-66.79142417 227.84988598 -64.02151501 228.78447511 -58.30493164 228.32714844 C-58.50309674 220.92779367 -58.50309674 220.92779367 -61.11743164 214.13964844 C-63.86390237 211.86400126 -65.95801911 211.37475491 -69.01196289 213.53417969 Z M9.69506836 218.70214844 C6.78626326 222.51995514 5.85579729 226.71940633 4.69506836 231.32714844 C2.22006836 230.83214844 2.22006836 230.83214844 -0.30493164 230.32714844 C-0.47508789 229.6890625 -0.64524414 229.05097656 -0.82055664 228.39355469 C-1.06290039 227.56726563 -1.30524414 226.74097656 -1.55493164 225.88964844 C-1.78696289 225.0659375 -2.01899414 224.24222656 -2.25805664 223.39355469 C-3.1227002 221.18123986 -3.1227002 221.18123986 -5.22680664 220.35449219 C-7.33299181 220.14039211 -7.33299181 220.14039211 -8.94946289 221.34667969 C-10.83825674 224.10638713 -11.31406327 226.75201961 -11.99243164 230.01464844 C-12.24379883 231.19414062 -12.49516602 232.37363281 -12.75415039 233.58886719 C-12.9359082 234.4925 -13.11766602 235.39613281 -13.30493164 236.32714844 C-14.95493164 236.65714844 -16.60493164 236.98714844 -18.30493164 237.32714844 C-18.36680664 236.35777344 -18.42868164 235.38839844 -18.49243164 234.38964844 C-19.18791958 229.59959772 -21.16569718 225.02129808 -24.30493164 221.32714844 C-26.89172465 220.51078132 -26.89172465 220.51078132 -29.30493164 220.32714844 C-33.1085881 226.11532132 -33.26599199 232.52244455 -33.30493164 239.32714844 C-31.30145692 241.33062316 -27.41463327 240.56767863 -24.67993164 240.57714844 C-9.86632187 240.52744355 4.97176123 237.29080699 17.69506836 229.32714844 C19.85608946 226.08561678 20.33754389 225.09021942 19.69506836 221.32714844 C17.47018957 218.93050886 17.47018957 218.93050886 14.69506836 217.32714844 C11.70257916 217.04388403 11.70257916 217.04388403 9.69506836 218.70214844 Z M-51.05493164 224.95214844 C-52.68179947 228.04319732 -52.89095602 229.88425523 -52.30493164 233.32714844 C-48.49109413 236.78343868 -44.23445375 236.90939233 -39.30493164 237.32714844 C-38.79945776 232.01967264 -40.07749601 229.50382984 -43.30493164 225.32714844 C-43.96493164 224.66714844 -44.62493164 224.00714844 -45.30493164 223.32714844 C-49.21442292 222.87351437 -49.21442292 222.87351437 -51.05493164 224.95214844 Z " fill="#F8F8F8" transform="translate(216.304931640625,38.6728515625)"/>
<path d="M0 0 C0.31924758 4.57588204 0.03616654 7.44035648 -3 11 C-5.625 11.375 -5.625 11.375 -8 11 C-9 10 -9 10 -9.25 6.125 C-9.20339548 3.52912846 -9.1319828 2.24196847 -7.875 -0.0625 C-5.06457284 -1.46771358 -2.96791942 -0.72549141 0 0 Z " fill="#F2F2F2" transform="translate(130,129)"/>
</svg>
