<?xml version="1.0" encoding="UTF-8" standalone="no" ?>
<!DOCTYPE svg PUBLIC "-//W3C//DTD SVG 1.1//EN" "http://www.w3.org/Graphics/SVG/1.1/DTD/svg11.dtd">
<svg xmlns="http://www.w3.org/2000/svg" xmlns:xlink="http://www.w3.org/1999/xlink" version="1.1" width="1080" height="1080" viewBox="0 0 1080 1080" xml:space="preserve">
<desc>Created with Fabric.js 5.2.4</desc>
<defs>
</defs>
<g transform="matrix(1 0 0 1 540 540)" id="d1f14f67-c1b0-48d4-a762-eeec47569b6a"  >
<rect style="stroke: none; stroke-width: 1; stroke-dasharray: none; stroke-linecap: butt; stroke-dashoffset: 0; stroke-linejoin: miter; stroke-miterlimit: 4; fill: rgb(255,255,255); fill-rule: nonzero; opacity: 1; visibility: hidden;" vector-effect="non-scaling-stroke"  x="-540" y="-540" rx="0" ry="0" width="1080" height="1080" />
</g>
<g transform="matrix(1 0 0 1 540 540)" id="ca68e19e-bb8c-44e1-8f0a-9e0a6d530566"  >
</g>
<g transform="matrix(0.39 0 0 -0.39 533.69 539.61)"  >
<path style="stroke: none; stroke-width: 1; stroke-dasharray: none; stroke-linecap: butt; stroke-dashoffset: 0; stroke-linejoin: miter; stroke-miterlimit: 4; fill: rgb(255,255,255); fill-rule: nonzero; opacity: 1;" vector-effect="non-scaling-stroke"  transform=" translate(-3076.76, -1994.13)" d="M 2787 3178 C 2744 3174 2682 3164 2650 3156 C 2339 3076 2120 2793 2120 2471 C 2120 2368 2134 2303 2176 2211 C 2220 2115 2279 2040 2360 1975 C 2447 1906 2492 1883 2710 1800 C 3077 1660 3236 1597 3290 1569 C 3374 1528 3444 1459 3482 1382 C 3513 1319 3515 1310 3515 1205 C 3515 1105 3512 1089 3487 1035 C 3435 923 3362 870 3248 862 C 3172 857 3081 872 3014 900 C 2954 926 2873 1010 2830 1090 C 2799 1150 2795 1165 2788 1279 C 2779 1421 2758 1481 2695 1545 C 2635 1604 2561 1632 2465 1632 C 2323 1631 2210 1566 2145 1449 C 2117 1399 2115 1388 2115 1290 C 2115 1187 2116 1182 2154 1105 C 2211 990 2281 922 2385 883 C 2429 866 2512 842 2570 829 C 2670 806 2693 805 3025 805 C 3361 805 3378 806 3455 828 C 3632 879 3732 931 3810 1009 C 3871 1071 3940 1160 3940 1178 C 3940 1186 3956 1217 3974 1248 C 4021 1325 4045 1449 4037 1580 C 4025 1774 3953 1917 3808 2037 C 3722 2108 3441 2243 3174 2340 C 2986 2409 2907 2449 2828 2514 C 2696 2624 2654 2706 2662 2844 C 2670 2973 2723 3065 2817 3114 C 2871 3142 2979 3162 3034 3155 C 3155 3139 3278 3052 3331 2944 C 3361 2883 3363 2872 3364 2762 C 3366 2659 3369 2639 3392 2590 C 3429 2511 3508 2434 3573 2415 C 3675 2385 3808 2402 3880 2455 C 3944 2502 3997 2578 4014 2646 C 4035 2730 4034 2778 4009 2852 C 3965 2982 3902 3054 3779 3113 C 3657 3172 3578 3181 3197 3183 C 3014 3184 2830 3182 2787 3178 z" stroke-linecap="round" />
</g>
<g transform="matrix(0.39 0 0 -0.39 1016.15 590.93)"  >
<path style="stroke: none; stroke-width: 1; stroke-dasharray: none; stroke-linecap: butt; stroke-dashoffset: 0; stroke-linejoin: miter; stroke-miterlimit: 4; fill: rgb(255,255,255); fill-rule: nonzero; opacity: 1;" vector-effect="non-scaling-stroke"  transform=" translate(-4290, -1879.41)" d="M 4232 2019 C 4184 1995 4140 1930 4140 1884 C 4141 1840 4174 1776 4209 1751 C 4285 1697 4369 1722 4414 1812 C 4428 1840 4440 1874 4440 1887 C 4440 1927 4414 1976 4377 2004 C 4328 2041 4285 2046 4232 2019 z" stroke-linecap="round" />
</g>
<g transform="matrix(0.39 0 0 -0.39 61.23 597.68)"  >
<path style="stroke: none; stroke-width: 1; stroke-dasharray: none; stroke-linecap: butt; stroke-dashoffset: 0; stroke-linejoin: miter; stroke-miterlimit: 4; fill: rgb(255,255,255); fill-rule: nonzero; opacity: 1;" vector-effect="non-scaling-stroke"  transform=" translate(-1864.47, -1862.42)" d="M 1816 1996 C 1795 1988 1765 1969 1749 1954 C 1689 1897 1723 1784 1814 1740 C 1837 1729 1865 1720 1877 1720 C 1926 1720 2010 1807 2010 1857 C 2010 1898 1979 1950 1941 1975 C 1892 2007 1862 2012 1816 1996 z" stroke-linecap="round" />
</g>
</svg>