<?xml version="1.0" encoding="UTF-8"?>
<svg version="1.1" viewBox="0 0 2048 1356" width="1280" height="1280" xmlns="http://www.w3.org/2000/svg">
<path transform="translate(0)" d="m0 0h2048v1356h-2048z" fill="#FCFCFC"/>
<path transform="translate(37,1027)" d="m0 0 12 1 26 1h1854l50 1h28l2 41v14h-260l-90 1h-79l-162-2h-335l-57-1-93-1-211 2h-84l-50-1h-225l-301 1-25 3-1-4z" fill="#0E0C0D"/>
<path transform="translate(1094,346)" d="m0 0h10l13 3 11 6 9 7 12 12 7 10 8 14 5 12 3 16v138l1 32 1 54v73l-1 30-3 49-1 36-1 60-4 26-5 16-6 11-8 10-10 10-10 7-9 4-4 1h-18l-10-3-11-6-12-9-13-13-9-13-8-16-3-12-3-25-1-15v-358l2-62 2-34 4-16 8-13 9-11 19-19 11-7 10-4z" fill="#0E0C0D"/>
<path transform="translate(1337,350)" d="m0 0h6l-1 7-2 11v87l1 35 1 188 1 37v220l-1 27-4 14-4 4-10 2-22 1-6-2-3-11-5-29-8-33-5-18-10-45-10-48-7-30-9-49-6-23-4-14 2 13 3 24 2 34 1 23 2 107v65l-1 36-39 2h-9l-1-1-2-62v-142l1-37v-74l-2-74v-87l2-84v-71l4-1h14l37-1 1 1 4 22 12 42 7 30 6 37 12 88 6 50 4 37 5 34 1 4v-31l-4-125-3-104v-83l34-2z" fill="#0E0C0D"/>
<path transform="translate(345,352)" d="m0 0h14l23 3 10 3 8 16 8 27 8 36 7 43 5 39 9 85 6 48 2 15 1-9 1-32v-172l2-66 1-18 3-13 2-2 11-1 29 2 1 6 1 53 1 24v159l-2 96v45l2 23 1 47-1 17-4 138-1 11-2 4-10 1h-35l-2-2-5-24-9-50-8-44-6-39-5-40-5-48-10-72-5-28-1 40-3 178-1 74-1 51-16 2-4 2-6 1h-16l-1-2v-154l1-222 2-111v-68l-1-59z" fill="#0E0C0D"/>
<path transform="translate(720,348)" d="m0 0 10 3 18 4 7 1 18 1 1 1v37l3 37 12 96 12 91 4 40 2 33 2 58 3 50 7 94 4 73v8l-1 1-38 1-8 2h-4l-1-3-6-74-2-20-1-3-2-1-35-2-2 8-5 41-4 39-2 14-1 2-13 1h-36v-23l4-58 8-98 4-46 4-50 8-80 5-47 4-55 3-40 6-62 4-28 6-33z" fill="#0E0C0D"/>
<path transform="translate(1453,356)" d="m0 0h1l4 57 6 52 6 42 7 47 6 38 9 73 4 39 2 32 5 150 1 53v40l-3 1h-39l-6-1-1-2-8-87-3-17-4-2-30-1-6 2-2 21-4 70v21l-20-2-26-1v-19l2-53 4-86 7-92 5-56 4-53 8-82 8-92 6-67 2-22 1-1h39z" fill="#0E0C0D"/>
<path transform="translate(105,353)" d="m0 0h23l13 4 10 5 9 7 6 5 9 13 5 11 4 15 4 29 3 35 1 33v42l-4 1-55-4-5-1v-9l3-36 2-37v-31l-3-17-5-3h-8l-9 2-8 4-3 6-1 11v68l2 26 4 19 7 21 15 38 10 22 7 14 13 28 16 31 7 14 7 18 3 12 2 14v100l-1 40-3 21-4 12-7 14-8 10-13 11-14 9-11 4-5 1h-23l-16-4-13-7-14-12-11-13-8-16-4-13-2-12-1-12v-40l2-73 1-16 1-1 46-3 13-1-2 73-1 37v29l2 12 1 3 9 2 16-2 7-3 2-9 1-24v-59l-2-48-3-18-7-20-9-20-13-26-11-25-14-27-16-36-8-20-6-23-4-26-2-19-1-24v-57l2-18 5-12 10-14 7-8 11-9 10-7 16-8z" fill="#0E0C0D"/>
<path transform="translate(1777,351)" d="m0 0h25l11 3 10 5 12 11 8 10 6 10 6 15 3 10 2 24 1 38 1 75 1 12h-11l-40-2-11-1-3-2 3-8 2-17 2-51v-34l-2-25-1-2-3-1h-19l-7 2-2 2-1 5-1 31v52l2 27 4 20 11 31 12 29 11 24 21 41 15 30 8 19 5 19 2 15v111l-1 27-3 21-3 10-5 10-8 10-14 14-14 9-10 4-4 1h-15l-14-3-12-6-13-10-10-9-8-9-6-13-6-26-3-34-1-78v-29l2-1 58 5 3 1v18l-4 54-2 34v31l1 3 4 2h10l16-4 2-3 1-19 1-53v-54l-2-16-5-16-9-21-9-19-8-19-10-20-9-16-11-23-12-25-5-15-4-17-3-19-2-32-1-36v-26l1-33 3-17 5-13 9-14 9-10 10-9 13-9 8-4z" fill="#0E0C0D"/>
<path transform="translate(580,350)" d="m0 0h9l15 3 15 8 12 9 11 11 9 14 5 12 4 17 2 20 1 19v34l-2 25-2 10-3 3-10 2-26 2h-22l4-16 3-30 1-12v-37l-3-21-2-5-6-2-10 1-10 4-2 4-1 6-1 32v18l2 49 3 20 7 24 10 24 13 30 12 26 12 27 11 26 7 17 6 21 5 30v47l-4 76-3 29-4 15-6 10-8 8-11 9-8 7-10 5-5 1h-22l-13-4-11-6-9-7-10-9-9-13-5-12-4-16-2-17-1-21-1-78v-22l-2-7v-4l4-2 21 4 27 7 6 4 2 18 1 64 1 41 3 12 3 2 5 1h19l-1-65-2-51-2-24-3-16-5-16-9-22-17-41-15-30-15-33-8-20-4-15-4-23-2-16-1-15v-85l1-19 4-18 7-16 8-12 9-10 11-9 13-8z" fill="#0E0C0D"/>
<path transform="translate(325,350)" d="m0 0 4 1 1 19v29l-3 5-10 3-48 6-2 6-2 61-4 108v34l5 5h19l26-1h15l1 2v32l-2 13-3 3-15 4-31 6-10 4-2 4-1 10-2 70-1 71-1 34v17l1 15 2 4h64l3 2v33l-1 23-2 5-1 1-53 2h-67l-2-50v-160l1-41 1-72 2-303 16 1h29l53-2z" fill="#0E0C0D"/>
<path transform="translate(1862,351)" d="m0 0 31 2 29 1h80l10-2v54l-1 3-26 4-11 2-1 11-1 43-1 157-1 48v97l1 85v124l-1 1-33 1-17 2h-7l-1-8-1-21-1-50-1-185v-56l1-73v-172l-44-2-3-1-1-16z" fill="#0E0C0D"/>
<path transform="translate(938,348)" d="m0 0h11l-3 7-3 38-1 19-2 4-12-2-18-1-5 2-1 2-1 15-5 175v110l3 104v156l-1 1h-22l-24-1-2-84-4-118-2-227-1-42-1-89h-27l-15-5-6-4-2-10v-47l114-2z" fill="#0E0C0D"/>
<path transform="translate(1562,352)" d="m0 0 2 1v64l2 62 3 130 3 88v96l-3 58-4 44-1 10v12h14l20-2h28l1 1v36l-1 24-2 4h-33l-74-1v-194l-1-87-2-118v-169l1-53 1-1 30-2z" fill="#0E0C0D"/>
<path transform="translate(1669,257)" d="m0 0h177l165 1v54l-1 1h-342l-32 1h-173l-58-1-29-1-1-2-1-49 8-1 33-1 144-1z" fill="#0E0C0D"/>
<path transform="translate(179,256)" d="m0 0h64l45 1 66 2h27l54-1 26-1 48-1h39l84 1 21 1 5 1v35l-1 18-23-1h-107l-61 1h-287l-81 1-45 2h-20v-23l2-29 1-4 63-2z" fill="#0E0C0D"/>
<path transform="translate(1695,351)" d="m0 0h4v13l-2 57v156l-1 46v85l1 46v67l-1 80-2 58-1 21-1 3h-17l-26-2-6-2v-76l1-124v-126l-2-117-1-176 1-1 29-3z" fill="#0E0C0D"/>
<path transform="translate(961,347)" d="m0 0 8 1 2 1 9 1 29 1 1 1v25l-3 74-2 90v205l1 127 1 62v46h-12l-32-3-4-2-4-80-2-61-2-114v-159l2-75 5-103 2-33z" fill="#0E0C0D"/>
<path transform="translate(976,45)" d="m0 0h6v78h32l19-1 9-1 1-27v-42l-2-4 5-1h43l13-1 1 12v179l-1 30-7 2-31 1h-22l-1-1v-85l-53 2-4 2-1 7-3 73h-56l-1-13v-73l1-136z" fill="#0E0C0D"/>
<path transform="translate(1154,47)" d="m0 0h158v37l-2 7-5 4-19 4-12 1-62 2v10l2 18 71 1 1 2 1 11v27l-2 5-6 2-28 3-38 3-1 2v25l79 1 16 1 2 2 3 21v18l-2 9-5 2-9 1-61 2-54 1h-31v-69l2-118 1-26z" fill="#0E0C0D"/>
<path transform="translate(1088,417)" d="m0 0h17l10 2 4 4v464l-1 15-4 8-4 2-12 1-10-2-6-4-4-5-2-10v-138l-1-61v-62l2-83 3-90 1-36 3-4z" fill="#FCFCFC"/>
<path transform="translate(873,45)" d="m0 0h11l-2 31-3 17-5 5-9 2-30 3-1 12-2 55-2 75-1 23-1 1-21-1-29-3-6-2-1-6v-147l-1-5-8-2-30-3-16-3-2-6-1-6-1-17v-22z" fill="#0E0C0D"/>
<path transform="translate(309,1149)" d="m0 0h15l9 3 4 5 12 36 10 27 6 10 3 2 11-20 7-19 7-25 4-13 5-4 6 1 6 7 12 29 11 24 7 16 3 6v2h2l1-5 24-72 3-6 2-1h13l8 3 3 3 1 7-2 12-12 38-14 41-12 36-9 14-4 3h-6l-7-5-8-13-5-14-16-47-4-5-4 16-8 26-6 23-6 10-7 6-7 1-6-4-6-12-11-30-15-37-12-28-6-19-2-11-1-16z" fill="#0E0C0D"/>
<path transform="translate(829,1042)" d="m0 0h31l17 1h36l28 1 23 2 20 4 5 2 2-1 9 4-1 5h-6l-1-3h-3v-2l-4 2-6 1-7 3-1 1h-9l-2 1-13 2-13 1-28 3-54 1-16 1-16 3-7 2-3 1-33 2-34 1h-77l-20-2 3-2 7-1h11l-1-2-14-2-35-2h-25l-49-1-46-3h-13l-25-2h-58l-26-3-7 1-7-3-12-1-1-3-2-2 5-1v2l9-3 6 1 9-2h36l30 3 5 1 9-1 6 1 7-2h9l12-1 35-2 61-2 40 1 114-4h76z" fill="#1F1E20"/>
<path transform="translate(40,1154)" d="m0 0 14 1 10 3 9 6 12 12 12 13 7 8 8 9 8 7 12 10 8 5 2-3v-42l-1-21-1-4h9l21 3 1 1v139l-1 6-3 1h-11l-7-2-11-13-12-13-10-13-9-11-15-16-9-11-5-6-2-1v66l-1 16h-19l-13-1-3-1-1-39v-106z" fill="#0E0C0D"/>
<path transform="translate(1081,1156)" d="m0 0 21 2 39 2 16 3 13 5 8 5 7 11 4 9 5 21v11l-4 6-11 8-14 9-1 5 10 17 12 18 5 11 1 5-2 2-5 1h-18l-6-4-8-9-9-11-10-13-9-9-9-5h-4l-1 3-2 28-1 23-10-2-11-7-2-9-1-9-4-119v-7z" fill="#0E0C0D"/>
<path transform="translate(773,1155)" d="m0 0h9l8 4 7 8 6 10 5 12v12l-4 10-8 10-6 5-3 4v6l7 12 6 1 18-13 16-7h9l3 4-3 9-4 6-9 11-4 4 3 9 8 14 6 10 2 7-9-1-12-5-13-7-5 1-14 10-13 6-14 3-11-1-14-7-11-10-12-16-6-12-1-4v-9l5-8 11-10 11-8 2-5-5-12-5-11-1-4v-8l3-7 6-5 17-10 14-7z" fill="#0E0C0D"/>
<path transform="translate(194,1158)" d="m0 0 29 1 65 1 2 1v11l-5 25-2 4-13-3-23-6-17-3 1 30 2 1 51 3 2 1 2 18v8h-54l1 23 9 1 48 1 2 2 2 18v11h-66l-34 1-1-4v-51l-1-45z" fill="#0E0C0D"/>
<path transform="translate(1391,1146)" d="m0 0 3 1 4 8 3 7 8 10 7 7 7 10 10 18 11 24 9 24 7 21 3 13v9l-3 8-11 2h-12l-4-23-4-6-5-2-9-1h-42l-4 16-4 8-15 7h-18l-1-4 9-36 11-32 11-26 19-43 9-19z" fill="#0E0C0D"/>
<path transform="translate(999,1153)" d="m0 0h11l13 2 12 5 11 7 7 7 5 10 1 4v10l-4 3-3 1h-14l-21-6-17-3-14 2-11 6-7 7-6 12-1 4v17l4 9 6 7 11 8 7 3 11 1 16-3 15-5 6-1h16l8 3 4 4v9l-11 8-12 8-10 7-18 8-4 1h-16l-12-3-16-8-10-8-10-9-9-11-7-11-4-8-3-12v-14l3-13 6-11 9-12 9-10 14-11 16-9 12-4z" fill="#0E0C0D"/>
<path transform="translate(1216,1158)" d="m0 0h99l1 4-5 18-6 5-21 6-21 4-13 2-2 6v12l1 2 45 3 10 1 1 1v19l-2 5-12 2-39 3-8 1-2 18v3l16-1h47l7 2 4 14v13l-2 2-10 1-43 1h-45l-1-17v-87z" fill="#0E0C0D"/>
<path transform="translate(563,1156)" d="m0 0h25l7 3 6 5 9 13 2 5v6l-3 3-9 2-19-2-7-1h-10l-7 2-3 4-1 4 3 5 8 5 20 8 24 8 10 5 7 8 3 9-1 14-3 10-7 12-9 10-12 9-13 6-5 1h-11l-16-3-16-8-8-7-2-4v-12l5-15 3-4 5 1 9 6 8 10 6 3 5 1 9-3 10-5 6-7v-5l-27-9-10-6-13-12-10-8-7-8-4-9v-14l4-17 10-11 12-5z" fill="#0E0C0D"/>
<path transform="translate(1723,1149)" d="m0 0h10l11 3 4 5 1 8-5 26-5 17-13 28-13 31-8 19-6 14-6 9-7 2h-5l-5-5-5-10-13-37-9-20-10-23-11-29-3-12v-14l2-5 7-2h14l5 5 17 49 11 23 5 5h3l11-27 7-17 7-16 8-26z" fill="#0E0C0D"/>
<path transform="translate(1922,1152)" d="m0 0h9l6 3 8 14 11 19 10 14 5 4 4-1 8-9 14-25 10-14 3-2 26 1 2 4-9 19-8 15-11 24-14 26-5 19-2 11v10l1 16-8 1h-24v-28l-1-16-3-12-8-15-13-16-10-13-9-13-4-9v-7l3-9 4-9z" fill="#0E0C0D"/>
<path transform="translate(1737,89)" d="m0 0h7l11 3 10 6 10 9 7 9 4 11 1 4v9l-3 11-7 13-11 12-10 7-9 4h-12l-12-6-13-11-10-10-5-9-2-6v-9l4-13 6-10 10-11 11-8 8-4z" fill="#0E0C0D"/>
<path transform="translate(1832,1157)" d="m0 0h64l3 4 4 9 3 2-1 1-1 7-3 6-7 5-12 4-10 2-1 2-1 9-1 85-1 8-4 1h-21l-1-2-3-49-3-55-9-4-11-4-5-3-2-6v-12l2-8 2-1z" fill="#0E0C0D"/>
<path transform="translate(1581,91)" d="m0 0 12 1 11 4 11 8 7 7 8 14 3 10v8l-4 12-8 12-9 10-11 7-6 2h-10l-12-5-6-4-11-9-8-9-5-11v-13l6-16 7-11 12-12 8-4z" fill="#0E0C0D"/>
<path transform="translate(130,93)" d="m0 0h11l13 4 10 7 7 7 8 13 3 9v9l-4 11-7 11-8 8-14 9-6 2h-11l-11-4-12-7-9-8-6-9-5-12v-14l4-9 4-6 7-8 11-8 10-4z" fill="#0E0C0D"/>
<path transform="translate(580,95)" d="m0 0h12l12 4 10 6 10 9 6 9 5 12v11l-5 10-12 13-13 10-10 5-3 1h-12l-12-5-10-8-8-8-7-12-2-10 1-10 5-13 8-10 9-7 12-6z" fill="#0E0C0D"/>
<path transform="translate(1502,1156)" d="m0 0h53l2 4v21l-3 7-4 5-4 2h-12l-4-1h-7l-1 1-1 65-2 34-2 7-18 3h-6l2-8 3-36 2-32v-22l-2-4-12-4-13-4-10-7-5-10-2-8v-11l13-1z" fill="#0E0C0D"/>
<path transform="translate(1896,96)" d="m0 0h15l11 4 10 8 8 11 5 11 1 4v12l-5 12-7 10-7 8-11 7-11 4-9-1-12-6-12-11-9-11-3-7-1-9 3-14 7-13 9-10 10-6z" fill="#0E0C0D"/>
<path transform="translate(1425,97)" d="m0 0h18l10 4 8 6 7 7 6 10 4 11v13l-7 14-8 9-13 9-11 4h-14l-12-5-10-10-8-15-3-10v-14l4-11 6-8 9-8 11-5z" fill="#0E0C0D"/>
<path transform="translate(432,94)" d="m0 0 15 2 11 6 10 10 8 14 3 12-3 9-5 9-8 10-7 7-11 7-6 2h-10l-11-4-9-6-5-5-6-7-5-10-1-5v-15l3-10 6-9 8-8 12-7z" fill="#0E0C0D"/>
<path transform="translate(298,92)" d="m0 0h12l12 6 7 7 7 14 2 7v14l-3 12-6 11-8 10-11 8-5 2-9-1-10-5-11-9-7-8-6-10-1-5v-10l4-11 6-10 11-12 8-6z" fill="#0E0C0D"/>
<path transform="translate(1580,1151)" d="m0 0 19 1 9 3 2 7v46l-3 53-3 35-3 10-11 1h-13v-36l-2-57-3-43 1-17 2-2z" fill="#0E0C0D"/>
<path transform="translate(1780,1152)" d="m0 0h11l3 3 1 4 1 20-2 26-4 67-2 22-3 11-3 2-8 1h-10l-1-1-2-51v-44l3-32 3-19 3-5 5-3z" fill="#0E0C0D"/>
<path transform="translate(1428,553)" d="m0 0h1l2 24 4 47 6 62 6 71 3 34v8l-6 2-21-2-8-3-2-5v-13l4-50 6-73 4-60z" fill="#FCFCFC"/>
<path transform="translate(739,537)" d="m0 0h1l3 36 3 45 4 41 4 66 4 44 1 25-6 1h-27l-4-2v-13l7-57 4-59 5-81z" fill="#FCFCFC"/>
<path transform="translate(1542,658)" d="m0 0h2l3 7 3 9 2 9 2 32v24l1 9 1 24 1 17-2 20-3 20-2 9-3 6-4 1-3-3v-10l-2-7v-16l-2-16-1-40v-41l1-27 2-14 3-11z" fill="#201F21"/>
<path transform="translate(1229,1041)" d="m0 0h50l34 2 24 2 11 2 4 5-9 3-18 1-28 1-43 1h-34l-19-1h-29l-20-1-7-1-4 1-7-4 3-2 5-2 7-2 7 1 3-1 20-1 3-1z" fill="#201F21"/>
<path transform="translate(386,609)" d="m0 0 2 1 3 11-2 108-1 13h-2l-1-5 2-12v-11h-2v12l-1 7-4 2-2-8-4-20-4-8-3-18v-25l3-25 3-12 5-3 2 1 3-3 1-2h2z" fill="#201F21"/>
<path transform="translate(1124,1192)" d="m0 0h23l7 3 7 6 2 4-1 6-4 6-12 6-14 3h-11l-5-2-3-4-1-4v-16l4-5z" fill="#FCFCFC"/>
<path transform="translate(747,1243)" d="m0 0h13l9 7 7 10 2 6-1 8-5 6-4 2-8-1-8-4-7-7-4-9v-11l3-5z" fill="#FCFCFC"/>
<path transform="translate(1514,502)" d="m0 0h1l1 67 1 25 2 16v9h-1l-1-8 1 14 2-2v2l5-1-1 5 3 3-3 4-1 3-3 1-1 43v20l2 2 1 4v35l-2 8-1 10v109h-1l-2-173-2-118z" fill="#1F1E20"/>
<path transform="translate(1189,352)" d="m0 0h43l-2 1v6l1 4-4 7-3 3-10 4-5-1-5-5-3-5-1-8h-6-3l-1 8h-1l-1-13z" fill="#201F21"/>
<path transform="translate(1396,1202)" d="m0 0 4 4 5 14 5 18v4l-12 2h-13l-3-1 1-6 6-14 4-17z" fill="#FCFCFC"/>
<path transform="translate(769,1168)" d="m0 0 7 1 4 4 1 3v14l-4 11-5 5-5-1-5-5-3-8-1-12 3-6 6-5z" fill="#FCFCFC"/>
<path transform="translate(1237,838)" d="m0 0h1l1 44v65h-1l-1-38h-2l-3 11v12l-1 10h2v6h-2l-1-3-1-37v-18l1-10v-9l2-1 2 9h-2v2h3v-6-3l1-10z" fill="#1F1E20"/>
<path transform="translate(1342,715)" d="m0 0h1v220l-1 27h-1l-1-34v-19l1-14v-74l-3-2h-2l-1 3v-12l5-15h1l-1-11 1-10v-49z" fill="#201F21"/>
<path transform="translate(1853,408)" d="m0 0h3l2 7 2 24 1 38v66h-1v-54h-2l-2 4-1-1-1-34 1-28-1-2v-6l-1-3v-7-2z" fill="#201F21"/>
<path transform="translate(212,309)" d="m0 0h72l28 1v1l-234 2v-1l18-2z" fill="#201F21"/>
<path transform="translate(1739,803)" d="m0 0h6l2 5 1 15-2 36-1 12-2-2v-23l1-7 1-25-7-1-5 6v11l1 11v16l3 16v5l-3-1-1-6v-8l-2-8v-11l-3-10 2-8v-6l3-12z" fill="#1F1E20"/>
<path transform="translate(643,749)" d="m0 0 6 1 2-1 1 9 2 2-1 6-1 2 3-1 1-6h1l2 14v10l-3 7-5-2-2-9-1-5-2-6-2-12-2-3v-5z" fill="#1F1D1F"/>
<path transform="translate(265,424)" d="m0 0h1v31l-1 25h-1l-1-14h-2v2h-3l-2-15 1-9 1-5h-1l1-10 4 2 2-1z" fill="#1E1D1F"/>
<path transform="translate(1215,869)" d="m0 0 3 1 1 9 1 4v15l-1 13-1 2-6-1v-3l-2-1v-7l4-1 1-2h-2l-1-6-3-1-1-6 6-3-2-5v-7z" fill="#201F21"/>
<path transform="translate(1565,753)" d="m0 0 3 1v14l1 8-1 14-1 24-2 5-2 1-1-3v-42z" fill="#201F21"/>
<path transform="translate(1213,617)" d="m0 0 2 1 8 33 6 23v16l-2-3-2-8-3-9-7-28-2-12-1-2v-8z" fill="#201F21"/>
<path transform="translate(1209,688)" d="m0 0 5 5 4 5 2-2 3 7 1 7 2 3h3l5 5v10l-2-2-3 2-3 7h2l-1 2-2-1-2-7-3-16-3-12-1-2-6-2z" fill="#1F1E20"/>
<path transform="translate(1413,791)" d="m0 0 2 4 8 3 17 2 6 2-1 5-2 1h-19l-8-4-3-4z" fill="#201F21"/>
<path transform="translate(1540,571)" d="m0 0h2l4 11 2 14 4 9v8l1 4-1 2 2 1-3 1-4-16-5-17-2-1-2 12-2 6h-1v-7l1-8 1-1 1-9z" fill="#1F1E20"/>
<path transform="translate(737,529)" d="m0 0h2l1 8-1 46-1 18h-1l-2-7-3-1 1-4-3 1v-3h2l2-11v-18l1 2 2-1v-19l-2-1 3-1z" fill="#1F1E20"/>
<path transform="translate(1521,729)" d="m0 0h1v15l-2 8-1 10v109h-1l-1-86v-50h2l1-5z" fill="#201F21"/>
<path transform="translate(1301,636)" d="m0 0h1l1 15 1 4h-1l1 45v27h-2l-4-25-2-24v-6h1l4 24z" fill="#201F21"/>
<path transform="translate(387,636)" d="m0 0h2l1 37-1 1-1 9-2-2-2-16v-19l2-9z" fill="#0E0C0D"/>
<path transform="translate(1427,547)" d="m0 0 2 1 2 8 2 36h-2l-2-31-1 34-2 33h-1v-42l1-18v-13z" fill="#201F21"/>
<path transform="translate(386,743)" d="m0 0 2 4v50h-1l-1-29-2 21-3 7-3-4v-9l1 2h2l2-12 1-20 1-9z" fill="#201F21"/>
<path transform="translate(1497,736)" d="m0 0h1l1 28v28h-1l-1-15-4 4-2-1v-4h2v-2h-2l1-5-2-5v-4h-2l-1 2 1-7h2l3 10 3 1z" fill="#1F1E20"/>
<path transform="translate(1514,502)" d="m0 0h1l1 67 1 25 2 16v9h-1l-1-8-1 6h-1l-1-37z" fill="#201F21"/>
<path transform="translate(1190,765)" d="m0 0h2l1 10v13l-2 4-2-2-1 43h-1v-53l2-13z" fill="#201F21"/>
<path transform="translate(1698,351)" d="m0 0h1v13l-2 57-2-4-1-8v-16l1-20 2-14z" fill="#1F1E20"/>
<path transform="translate(1868,1210)" d="m0 0h1v83l-1 8h-1v-42l-1-9-1-1v-10h2v-2l-2-1 1-1z" fill="#201F21"/>
<path transform="translate(1732,817)" d="m0 0 1 4v9l1 11v16l3 16v5l-3-1-1-6v-8l-2-8v-11l-3-10 2-8v-6z" fill="#201F21"/>
<path transform="translate(1400,871)" d="m0 0 4 1-2 21h-3l-2-5v-4h-2l-2-7 3-5z" fill="#201F21"/>
<path transform="translate(1519,704)" d="m0 0 2 1 1 4v20l-3 6h-2v-29h2z" fill="#201F21"/>
<path transform="translate(1054,1050)" d="m0 0 11 1 7-1 5 1 1 4-6 3-9-3-2 1-9-1-1-4z" fill="#201F21"/>
<path transform="translate(239,473)" d="m0 0 2 1 3 2-2 6v22h-2l-1-6-2-1-1 2 1-13 1-8z" fill="#1F1E20"/>
<path transform="translate(1746,817)" d="m0 0h1l1 6-2 36-1 12-2-2v-23l1-7 1-20z" fill="#201F21"/>
<path transform="translate(1194,709)" d="m0 0h2l1 2v16l-2 6-2-3-1-5v-9z" fill="#201F21"/>
<path transform="translate(1565,603)" d="m0 0h1v15l-6 4v-5l-1-2 4-7z" fill="#1E1D1F"/>
<path transform="translate(383,780)" d="m0 0h1v9l-3 7-3-4v-9l1 2h2l1-4z" fill="#1F1E20"/>
<path transform="translate(1008,1050)" d="m0 0 6 1 3 3-4 2h-11l1-3z" fill="#201F21"/>
<path transform="translate(1209,674)" d="m0 0 2 3 4 8 3 4 1 7-4-5-5-6z" fill="#201F21"/>
<path transform="translate(1261,423)" d="m0 0h1l2 12-1 5-5 1 2-5-3-3v-2h3z" fill="#201F21"/>
<path transform="translate(129,529)" d="m0 0h1l1 10 3 4-2 5h-4v-9z" fill="#201F21"/>
<path transform="translate(367,752)" d="m0 0 2 2 5 16 2 7-3-1-3-5-2-13z" fill="#201F21"/>
<path transform="translate(1209,688)" d="m0 0 5 5 4 5 1 6-2-3-1-2-6-2z" fill="#201F21"/>
<path transform="translate(1801,551)" d="m0 0 2 3v2l3 1v3h6v1h-11l-3-2z" fill="#201F21"/>
<path transform="translate(1094,1051)" d="m0 0h9l2 1-2 4-10-1-2-3z" fill="#201F21"/>
<path transform="translate(1231,675)" d="m0 0h1l1 12 3 1v2h-3l-1 2-3-11 1-5z" fill="#1D1C1E"/>
<path transform="translate(178,413)" d="m0 0 4 1 2-1 1 11-5-4-2-4-2-2z" fill="#1F1E20"/>
<path transform="translate(1231,848)" d="m0 0h1l1 18h-3l-1-10z" fill="#201F21"/>
<path transform="translate(542,817)" d="m0 0 4 2-1 5h-2v-2l-5 2-1-3 2-3z" fill="#201F21"/>
<path transform="translate(737,529)" d="m0 0h2l1 8-1 21h-1l-1-18-2-1 3-1z" fill="#201F21"/>
<path transform="translate(1853,408)" d="m0 0h3l1 3v12l-3-1-1-3v-7-2z" fill="#181719"/>
<path transform="translate(1050,48)" d="m0 0h18v1l-7 1v1h-11z" fill="#201F21"/>
<path transform="translate(837,1294)" d="m0 0 6 2 2 7-9-1 3-1z" fill="#201F21"/>
<path transform="translate(1269,463)" d="m0 0h1l1 12-1 2-2-1-1-9z" fill="#1F1E20"/>
<path transform="translate(1189,352)" d="m0 0 11 1v1l-7 2-2 2-1 8h-1l-1-13z" fill="#171617"/>
<path transform="translate(1230,921)" d="m0 0h1l1 11-1 10h2v6h-2l-1-3z" fill="#201F21"/>
<path transform="translate(388,725)" d="m0 0 1 4-1 13h-2l-1-5 2-11z" fill="#1D1C1E"/>
<path transform="translate(1563,685)" d="m0 0 2 1 1 11-1 3h-2l-1-7z" fill="#201F21"/>
<path transform="translate(190,477)" d="m0 0h1v19h-1l-1-9h-1v-8z" fill="#201F21"/>
<path transform="translate(1861,558)" d="m0 0 2 2v4h-11l4-3z" fill="#1C1B1D"/>
<path transform="translate(446,658)" d="m0 0h1v19h-3v-10h1z" fill="#201F21"/>
<path transform="translate(1779,597)" d="m0 0 4 4-1 5-5-5z" fill="#201F21"/>
<path transform="translate(187,462)" d="m0 0 3 1v9l-3-1-1-7z" fill="#201F21"/>
<path transform="translate(1518,719)" d="m0 0 2 3 1 7-2 6h-1z" fill="#0E0C0D"/>
<path transform="translate(1294,658)" d="m0 0h1l1 6v8l-2-3-3-1v-2h2z" fill="#1F1E20"/>
<path transform="translate(175,466)" d="m0 0 2 2v5l-3 1-1 2v-9z" fill="#1F1E20"/>
<path transform="translate(496,262)" d="m0 0h6l1 2-5 1h-8v-2z" fill="#201F21"/>
<path transform="translate(1551,608)" d="m0 0 1 3 1 6-1 2 2 1-3 1-2-12z" fill="#201F21"/>
<path transform="translate(1783,598)" d="m0 0 4 1 2-1 2 6h-3l-3-1v-3h-2z" fill="#1C1B1D"/>
</svg>
